<svg width="274" height="49" viewBox="0 0 274 49" fill="none" xmlns="http://www.w3.org/2000/svg">
<path d="M0 4.71435C0 2.50522 1.79086 0.714355 4 0.714355H270C272.209 0.714355 274 2.50522 274 4.71436V44.7144C274 46.9235 272.209 48.7144 270 48.7144H4C1.79086 48.7144 0 46.9235 0 44.7144V4.71435Z" fill="#9F6634"/>
<path d="M45.3691 19.7163C43.8001 19.7163 42.5599 20.2404 41.6484 21.2886C40.7435 22.3302 40.291 23.7593 40.291 25.5757C40.291 27.4442 40.7272 28.8895 41.5996 29.9116C42.4785 30.9272 43.7285 31.4351 45.3496 31.4351C46.3457 31.4351 47.4818 31.256 48.7578 30.8979V32.353C47.7682 32.7241 46.5475 32.9097 45.0957 32.9097C42.9928 32.9097 41.3685 32.2716 40.2227 30.9956C39.0833 29.7196 38.5137 27.9064 38.5137 25.5562C38.5137 24.0848 38.7871 22.7957 39.334 21.689C39.8874 20.5822 40.6816 19.7293 41.7168 19.1304C42.7585 18.5314 43.9824 18.2319 45.3887 18.2319C46.8861 18.2319 48.1947 18.5054 49.3145 19.0522L48.6113 20.478C47.5306 19.9702 46.4499 19.7163 45.3691 19.7163ZM58.9531 32.7144V25.7905C58.9531 24.9181 58.7546 24.2671 58.3574 23.8374C57.9603 23.4077 57.3385 23.1929 56.4922 23.1929C55.3659 23.1929 54.5423 23.4989 54.0215 24.1108C53.5072 24.7228 53.25 25.7254 53.25 27.1187V32.7144H51.6289V17.519H53.25V22.1187C53.25 22.672 53.224 23.131 53.1719 23.4956H53.2695C53.5885 22.9813 54.041 22.5776 54.627 22.2847C55.2194 21.9852 55.8932 21.8354 56.6484 21.8354C57.957 21.8354 58.9368 22.1479 59.5879 22.7729C60.2454 23.3914 60.5742 24.3778 60.5742 25.7319V32.7144H58.9531ZM70.4961 32.7144L70.1738 31.1909H70.0957C69.5618 31.8615 69.028 32.3172 68.4941 32.5581C67.9668 32.7925 67.306 32.9097 66.5117 32.9097C65.4505 32.9097 64.6172 32.6362 64.0117 32.0894C63.4128 31.5425 63.1133 30.7645 63.1133 29.7554C63.1133 27.5939 64.8418 26.4611 68.2988 26.3569L70.1152 26.2983V25.6343C70.1152 24.7944 69.9329 24.1759 69.5684 23.7788C69.2103 23.3752 68.6341 23.1733 67.8398 23.1733C66.9479 23.1733 65.9388 23.4468 64.8125 23.9937L64.3145 22.7534C64.8418 22.467 65.418 22.2424 66.043 22.0796C66.6745 21.9168 67.306 21.8354 67.9375 21.8354C69.2135 21.8354 70.1576 22.1187 70.7695 22.6851C71.388 23.2515 71.6973 24.1597 71.6973 25.4097V32.7144H70.4961ZM66.834 31.5718C67.8431 31.5718 68.6341 31.2951 69.207 30.7417C69.7865 30.1883 70.0762 29.4136 70.0762 28.4175V27.4507L68.4551 27.519C67.166 27.5646 66.235 27.7664 65.6621 28.1245C65.0957 28.4761 64.8125 29.0262 64.8125 29.7749C64.8125 30.3608 64.9883 30.8068 65.3398 31.1128C65.6979 31.4188 66.196 31.5718 66.834 31.5718ZM82.3711 32.7144V25.7905C82.3711 24.9181 82.1725 24.2671 81.7754 23.8374C81.3783 23.4077 80.7565 23.1929 79.9102 23.1929C78.7904 23.1929 77.9701 23.4956 77.4492 24.1011C76.9284 24.7065 76.668 25.7059 76.668 27.0991V32.7144H75.0469V22.0112H76.3652L76.6289 23.4761H76.707C77.0391 22.9487 77.5046 22.5418 78.1035 22.2554C78.7025 21.9624 79.3698 21.8159 80.1055 21.8159C81.3945 21.8159 82.3646 22.1284 83.0156 22.7534C83.6667 23.3719 83.9922 24.3647 83.9922 25.7319V32.7144H82.3711ZM96.0918 22.0112V23.0366L94.1094 23.271C94.2917 23.4989 94.4544 23.7983 94.5977 24.1694C94.7409 24.534 94.8125 24.9474 94.8125 25.4097C94.8125 26.4578 94.4544 27.2944 93.7383 27.9194C93.0221 28.5444 92.0391 28.8569 90.7891 28.8569C90.4701 28.8569 90.1706 28.8309 89.8906 28.7788C89.2005 29.1434 88.8555 29.6024 88.8555 30.1558C88.8555 30.4487 88.9759 30.6668 89.2168 30.8101C89.4577 30.9468 89.8711 31.0151 90.457 31.0151H92.3516C93.5104 31.0151 94.3991 31.2593 95.0176 31.7476C95.6426 32.2358 95.9551 32.9455 95.9551 33.8765C95.9551 35.0614 95.4798 35.9631 94.5293 36.5815C93.5788 37.2065 92.1921 37.519 90.3691 37.519C88.9694 37.519 87.8887 37.2586 87.127 36.7378C86.3717 36.217 85.9941 35.4813 85.9941 34.5308C85.9941 33.8797 86.2025 33.3166 86.6191 32.8413C87.0358 32.366 87.6217 32.0438 88.377 31.8745C88.1035 31.7508 87.8724 31.5588 87.6836 31.2983C87.5013 31.0379 87.4102 30.7352 87.4102 30.3901C87.4102 29.9995 87.5143 29.6577 87.7227 29.3647C87.931 29.0718 88.2598 28.7886 88.709 28.5151C88.1556 28.2873 87.7031 27.8999 87.3516 27.353C87.0065 26.8062 86.834 26.1812 86.834 25.478C86.834 24.3062 87.1855 23.4045 87.8887 22.7729C88.5918 22.1349 89.5879 21.8159 90.877 21.8159C91.4368 21.8159 91.9414 21.881 92.3906 22.0112H96.0918ZM87.5566 34.5112C87.5566 35.0907 87.8008 35.5301 88.2891 35.8296C88.7773 36.1291 89.4772 36.2788 90.3887 36.2788C91.7493 36.2788 92.7552 36.0737 93.4062 35.6636C94.0638 35.2599 94.3926 34.7098 94.3926 34.0132C94.3926 33.4338 94.2135 33.0301 93.8555 32.8022C93.4974 32.5809 92.8236 32.4702 91.834 32.4702H89.8906C89.1549 32.4702 88.582 32.646 88.1719 32.9976C87.7617 33.3491 87.5566 33.8537 87.5566 34.5112ZM88.4355 25.439C88.4355 26.1877 88.6471 26.7541 89.0703 27.1382C89.4935 27.5223 90.0827 27.7144 90.8379 27.7144C92.4199 27.7144 93.2109 26.9461 93.2109 25.4097C93.2109 23.8016 92.4102 22.9976 90.8086 22.9976C90.0469 22.9976 89.4609 23.2026 89.0508 23.6128C88.6406 24.0229 88.4355 24.6317 88.4355 25.439ZM102.811 32.9097C101.229 32.9097 99.9785 32.4279 99.0605 31.4644C98.1491 30.5008 97.6934 29.1629 97.6934 27.4507C97.6934 25.7254 98.1165 24.355 98.9629 23.3394C99.8158 22.3237 100.958 21.8159 102.391 21.8159C103.732 21.8159 104.793 22.2586 105.574 23.144C106.355 24.0229 106.746 25.1851 106.746 26.6304V27.6558H99.373C99.4056 28.9123 99.7214 29.866 100.32 30.5171C100.926 31.1681 101.775 31.4937 102.869 31.4937C104.021 31.4937 105.161 31.2528 106.287 30.771V32.2163C105.714 32.4637 105.171 32.6395 104.656 32.7437C104.148 32.8543 103.533 32.9097 102.811 32.9097ZM102.371 23.1733C101.512 23.1733 100.825 23.4533 100.311 24.0132C99.8027 24.5731 99.5033 25.3478 99.4121 26.3374H105.008C105.008 25.3153 104.78 24.534 104.324 23.9937C103.868 23.4468 103.217 23.1733 102.371 23.1733ZM121.277 32.7144L116.434 20.0581H116.355C116.447 21.0607 116.492 22.2521 116.492 23.6323V32.7144H114.959V18.437H117.459L121.98 30.2144H122.059L126.619 18.437H129.1V32.7144H127.439V23.5151C127.439 22.4604 127.485 21.3146 127.576 20.0776H127.498L122.615 32.7144H121.277ZM131.082 22.0112H132.82L135.164 28.1147C135.678 29.508 135.997 30.5138 136.121 31.1323H136.199C136.284 30.8003 136.46 30.2339 136.727 29.4331C137 28.6258 137.885 26.1519 139.383 22.0112H141.121L136.521 34.1987C136.066 35.4032 135.532 36.256 134.92 36.7573C134.314 37.2651 133.569 37.519 132.684 37.519C132.189 37.519 131.701 37.4637 131.219 37.353V36.0542C131.577 36.1323 131.977 36.1714 132.42 36.1714C133.533 36.1714 134.327 35.5464 134.803 34.2964L135.398 32.7729L131.082 22.0112ZM157.352 22.5972C157.352 24.0425 156.857 25.1558 155.867 25.937C154.884 26.7118 153.475 27.0991 151.639 27.0991H149.959V32.7144H148.299V18.437H152C155.568 18.437 157.352 19.8237 157.352 22.5972ZM149.959 25.6733H151.453C152.924 25.6733 153.989 25.4357 154.646 24.9604C155.304 24.4852 155.633 23.7235 155.633 22.6753C155.633 21.7313 155.324 21.0282 154.705 20.5659C154.087 20.1037 153.123 19.8726 151.814 19.8726H149.959V25.6733ZM166.688 32.7144L166.365 31.1909H166.287C165.753 31.8615 165.219 32.3172 164.686 32.5581C164.158 32.7925 163.497 32.9097 162.703 32.9097C161.642 32.9097 160.809 32.6362 160.203 32.0894C159.604 31.5425 159.305 30.7645 159.305 29.7554C159.305 27.5939 161.033 26.4611 164.49 26.3569L166.307 26.2983V25.6343C166.307 24.7944 166.124 24.1759 165.76 23.7788C165.402 23.3752 164.826 23.1733 164.031 23.1733C163.139 23.1733 162.13 23.4468 161.004 23.9937L160.506 22.7534C161.033 22.467 161.609 22.2424 162.234 22.0796C162.866 21.9168 163.497 21.8354 164.129 21.8354C165.405 21.8354 166.349 22.1187 166.961 22.6851C167.579 23.2515 167.889 24.1597 167.889 25.4097V32.7144H166.688ZM163.025 31.5718C164.035 31.5718 164.826 31.2951 165.398 30.7417C165.978 30.1883 166.268 29.4136 166.268 28.4175V27.4507L164.646 27.519C163.357 27.5646 162.426 27.7664 161.854 28.1245C161.287 28.4761 161.004 29.0262 161.004 29.7749C161.004 30.3608 161.18 30.8068 161.531 31.1128C161.889 31.4188 162.387 31.5718 163.025 31.5718ZM178.143 29.7944C178.143 30.7905 177.771 31.5588 177.029 32.0991C176.287 32.6395 175.245 32.9097 173.904 32.9097C172.485 32.9097 171.378 32.6851 170.584 32.2358V30.7319C171.098 30.9924 171.648 31.1974 172.234 31.3472C172.827 31.4969 173.396 31.5718 173.943 31.5718C174.79 31.5718 175.441 31.4383 175.896 31.1714C176.352 30.8979 176.58 30.4845 176.58 29.9312C176.58 29.5145 176.398 29.1597 176.033 28.8667C175.675 28.5672 174.972 28.2157 173.924 27.812C172.928 27.4409 172.218 27.1187 171.795 26.8452C171.378 26.5653 171.066 26.2495 170.857 25.8979C170.656 25.5464 170.555 25.1265 170.555 24.6382C170.555 23.7658 170.91 23.0789 171.619 22.5776C172.329 22.0698 173.302 21.8159 174.539 21.8159C175.691 21.8159 176.818 22.0503 177.918 22.519L177.342 23.8374C176.268 23.3947 175.294 23.1733 174.422 23.1733C173.654 23.1733 173.074 23.2938 172.684 23.5347C172.293 23.7756 172.098 24.1076 172.098 24.5308C172.098 24.8172 172.169 25.0614 172.312 25.2632C172.462 25.465 172.7 25.6571 173.025 25.8394C173.351 26.0216 173.976 26.2853 174.9 26.6304C176.17 27.0926 177.026 27.5581 177.469 28.0269C177.918 28.4956 178.143 29.0848 178.143 29.7944ZM187.693 29.7944C187.693 30.7905 187.322 31.5588 186.58 32.0991C185.838 32.6395 184.796 32.9097 183.455 32.9097C182.036 32.9097 180.929 32.6851 180.135 32.2358V30.7319C180.649 30.9924 181.199 31.1974 181.785 31.3472C182.378 31.4969 182.947 31.5718 183.494 31.5718C184.34 31.5718 184.992 31.4383 185.447 31.1714C185.903 30.8979 186.131 30.4845 186.131 29.9312C186.131 29.5145 185.949 29.1597 185.584 28.8667C185.226 28.5672 184.523 28.2157 183.475 27.812C182.479 27.4409 181.769 27.1187 181.346 26.8452C180.929 26.5653 180.617 26.2495 180.408 25.8979C180.206 25.5464 180.105 25.1265 180.105 24.6382C180.105 23.7658 180.46 23.0789 181.17 22.5776C181.88 22.0698 182.853 21.8159 184.09 21.8159C185.242 21.8159 186.368 22.0503 187.469 22.519L186.893 23.8374C185.818 23.3947 184.845 23.1733 183.973 23.1733C183.204 23.1733 182.625 23.2938 182.234 23.5347C181.844 23.7756 181.648 24.1076 181.648 24.5308C181.648 24.8172 181.72 25.0614 181.863 25.2632C182.013 25.465 182.251 25.6571 182.576 25.8394C182.902 26.0216 183.527 26.2853 184.451 26.6304C185.721 27.0926 186.577 27.5581 187.02 28.0269C187.469 28.4956 187.693 29.0848 187.693 29.7944ZM199.08 32.7144L197.117 26.4351C196.993 26.0509 196.762 25.1785 196.424 23.8179H196.346C196.085 24.9572 195.857 25.8361 195.662 26.4546L193.641 32.7144H191.766L188.846 22.0112H190.545C191.235 24.7 191.759 26.7476 192.117 28.1538C192.482 29.5601 192.69 30.5073 192.742 30.9956H192.82C192.892 30.6245 193.006 30.146 193.162 29.5601C193.325 28.9676 193.465 28.4989 193.582 28.1538L195.545 22.0112H197.303L199.217 28.1538C199.581 29.2736 199.829 30.2144 199.959 30.9761H200.037C200.063 30.7417 200.132 30.3804 200.242 29.8921C200.359 29.4038 201.04 26.7769 202.283 22.0112H203.963L201.004 32.7144H199.08ZM215.145 27.353C215.145 29.0978 214.705 30.4618 213.826 31.4448C212.947 32.4214 211.733 32.9097 210.184 32.9097C209.227 32.9097 208.377 32.6851 207.635 32.2358C206.893 31.7866 206.32 31.1421 205.916 30.3022C205.512 29.4624 205.311 28.4793 205.311 27.353C205.311 25.6082 205.747 24.2508 206.619 23.2808C207.492 22.3042 208.702 21.8159 210.252 21.8159C211.749 21.8159 212.938 22.314 213.816 23.3101C214.702 24.3062 215.145 25.6538 215.145 27.353ZM206.99 27.353C206.99 28.7202 207.264 29.7619 207.811 30.478C208.357 31.1942 209.161 31.5522 210.223 31.5522C211.284 31.5522 212.088 31.1974 212.635 30.4878C213.188 29.7716 213.465 28.7267 213.465 27.353C213.465 25.9924 213.188 24.9604 212.635 24.2573C212.088 23.5477 211.277 23.1929 210.203 23.1929C209.142 23.1929 208.341 23.5412 207.801 24.2378C207.26 24.9344 206.99 25.9728 206.99 27.353ZM222.879 21.8159C223.354 21.8159 223.781 21.855 224.158 21.9331L223.934 23.437C223.491 23.3394 223.1 23.2905 222.762 23.2905C221.896 23.2905 221.154 23.6421 220.535 24.3452C219.923 25.0483 219.617 25.924 219.617 26.9722V32.7144H217.996V22.0112H219.334L219.52 23.9937H219.598C219.995 23.297 220.473 22.7599 221.033 22.3823C221.593 22.0047 222.208 21.8159 222.879 21.8159ZM233.445 31.2788H233.357C232.609 32.366 231.489 32.9097 229.998 32.9097C228.598 32.9097 227.508 32.4312 226.727 31.4741C225.952 30.5171 225.564 29.1564 225.564 27.3921C225.564 25.6278 225.955 24.2573 226.736 23.2808C227.518 22.3042 228.605 21.8159 229.998 21.8159C231.45 21.8159 232.563 22.3433 233.338 23.3979H233.465L233.396 22.6265L233.357 21.8745V17.519H234.979V32.7144H233.66L233.445 31.2788ZM230.203 31.5522C231.31 31.5522 232.111 31.2528 232.605 30.6538C233.107 30.0483 233.357 29.075 233.357 27.7339V27.3921C233.357 25.8752 233.104 24.7944 232.596 24.1499C232.094 23.4989 231.29 23.1733 230.184 23.1733C229.233 23.1733 228.504 23.5444 227.996 24.2866C227.495 25.0223 227.244 26.064 227.244 27.4116C227.244 28.7788 227.495 29.8107 227.996 30.5073C228.497 31.2039 229.233 31.5522 230.203 31.5522Z" fill="white"/>
</svg>
