<svg width="274" height="49" viewBox="0 0 274 49" fill="none" xmlns="http://www.w3.org/2000/svg">
<path d="M0 4.09619C0 1.88705 1.79086 0.0961914 4 0.0961914H270C272.209 0.0961914 274 1.88705 274 4.09619V44.0962C274 46.3053 272.209 48.0962 270 48.0962H4C1.79086 48.0962 0 46.3053 0 44.0962V4.09619Z" fill="#9F6634"/>
<path d="M50.2812 19.0981C48.7122 19.0981 47.472 19.6222 46.5605 20.6704C45.6556 21.7121 45.2031 23.1411 45.2031 24.9575C45.2031 26.826 45.6393 28.2713 46.5117 29.2935C47.3906 30.3091 48.6406 30.8169 50.2617 30.8169C51.2578 30.8169 52.3939 30.6379 53.6699 30.2798V31.7349C52.6803 32.106 51.4596 32.2915 50.0078 32.2915C47.9049 32.2915 46.2806 31.6535 45.1348 30.3774C43.9954 29.1014 43.4258 27.2882 43.4258 24.938C43.4258 23.4666 43.6992 22.1776 44.2461 21.0708C44.7995 19.964 45.5938 19.1112 46.6289 18.5122C47.6706 17.9132 48.8945 17.6138 50.3008 17.6138C51.7982 17.6138 53.1068 17.8872 54.2266 18.4341L53.5234 19.8599C52.4427 19.3521 51.362 19.0981 50.2812 19.0981ZM65.7793 26.7349C65.7793 28.4797 65.3398 29.8436 64.4609 30.8267C63.582 31.8032 62.3678 32.2915 60.8184 32.2915C59.8613 32.2915 59.0117 32.0669 58.2695 31.6177C57.5273 31.1685 56.9544 30.5239 56.5508 29.6841C56.1471 28.8442 55.9453 27.8612 55.9453 26.7349C55.9453 24.9901 56.3815 23.6326 57.2539 22.6626C58.1263 21.686 59.3372 21.1978 60.8867 21.1978C62.3841 21.1978 63.5723 21.6958 64.4512 22.6919C65.3366 23.688 65.7793 25.0356 65.7793 26.7349ZM57.625 26.7349C57.625 28.1021 57.8984 29.1437 58.4453 29.8599C58.9922 30.576 59.7962 30.9341 60.8574 30.9341C61.9186 30.9341 62.7227 30.5793 63.2695 29.8696C63.8229 29.1535 64.0996 28.1086 64.0996 26.7349C64.0996 25.3742 63.8229 24.3423 63.2695 23.6392C62.7227 22.9295 61.9121 22.5747 60.8379 22.5747C59.7767 22.5747 58.9759 22.923 58.4355 23.6196C57.8952 24.3162 57.625 25.3547 57.625 26.7349ZM75.9551 32.0962V25.1724C75.9551 24.3 75.7565 23.6489 75.3594 23.2192C74.9622 22.7896 74.3405 22.5747 73.4941 22.5747C72.3743 22.5747 71.554 22.8774 71.0332 23.4829C70.5124 24.0884 70.252 25.0877 70.252 26.481V32.0962H68.6309V21.3931H69.9492L70.2129 22.8579H70.291C70.623 22.3306 71.0885 21.9237 71.6875 21.6372C72.2865 21.3442 72.9538 21.1978 73.6895 21.1978C74.9785 21.1978 75.9486 21.5103 76.5996 22.1353C77.2507 22.7537 77.5762 23.7466 77.5762 25.1138V32.0962H75.9551ZM85.7402 22.6528H83.0156V32.0962H81.3945V22.6528H79.4805V21.9204L81.3945 21.3345V20.7388C81.3945 18.1086 82.5436 16.7935 84.8418 16.7935C85.4082 16.7935 86.0723 16.9074 86.834 17.1353L86.4141 18.4341C85.7891 18.2323 85.2552 18.1313 84.8125 18.1313C84.2005 18.1313 83.748 18.3364 83.4551 18.7466C83.1621 19.1502 83.0156 19.8013 83.0156 20.6997V21.3931H85.7402V22.6528ZM89.3145 32.0962H87.6934V21.3931H89.3145V32.0962ZM87.5566 18.4927C87.5566 18.1216 87.6478 17.8514 87.8301 17.6821C88.0124 17.5063 88.2402 17.4185 88.5137 17.4185C88.7741 17.4185 88.9987 17.5063 89.1875 17.6821C89.3763 17.8579 89.4707 18.1281 89.4707 18.4927C89.4707 18.8573 89.3763 19.1307 89.1875 19.313C88.9987 19.4888 88.7741 19.5767 88.5137 19.5767C88.2402 19.5767 88.0124 19.4888 87.8301 19.313C87.6478 19.1307 87.5566 18.8573 87.5566 18.4927ZM97.6348 21.1978C98.11 21.1978 98.5365 21.2368 98.9141 21.3149L98.6895 22.8188C98.2467 22.7212 97.8561 22.6724 97.5176 22.6724C96.6517 22.6724 95.9095 23.0239 95.291 23.7271C94.679 24.4302 94.373 25.3058 94.373 26.354V32.0962H92.752V21.3931H94.0898L94.2754 23.3755H94.3535C94.7507 22.6789 95.2292 22.1418 95.7891 21.7642C96.349 21.3866 96.9642 21.1978 97.6348 21.1978ZM114.559 32.0962V25.1333C114.559 24.2804 114.376 23.6424 114.012 23.2192C113.647 22.7896 113.081 22.5747 112.312 22.5747C111.303 22.5747 110.558 22.8644 110.076 23.4438C109.594 24.0233 109.354 24.9152 109.354 26.1196V32.0962H107.732V25.1333C107.732 24.2804 107.55 23.6424 107.186 23.2192C106.821 22.7896 106.251 22.5747 105.477 22.5747C104.461 22.5747 103.715 22.8807 103.24 23.4927C102.771 24.0981 102.537 25.0942 102.537 26.481V32.0962H100.916V21.3931H102.234L102.498 22.8579H102.576C102.882 22.3371 103.312 21.9302 103.865 21.6372C104.425 21.3442 105.05 21.1978 105.74 21.1978C107.413 21.1978 108.507 21.8032 109.021 23.0142H109.1C109.419 22.4543 109.881 22.0116 110.486 21.686C111.092 21.3605 111.782 21.1978 112.557 21.1978C113.768 21.1978 114.673 21.5103 115.271 22.1353C115.877 22.7537 116.18 23.7466 116.18 25.1138V32.0962H114.559ZM131.287 32.0962L126.443 19.4399H126.365C126.456 20.4425 126.502 21.634 126.502 23.0142V32.0962H124.969V17.8188H127.469L131.99 29.5962H132.068L136.629 17.8188H139.109V32.0962H137.449V22.897C137.449 21.8423 137.495 20.6965 137.586 19.4595H137.508L132.625 32.0962H131.287ZM141.092 21.3931H142.83L145.174 27.4966C145.688 28.8898 146.007 29.8957 146.131 30.5142H146.209C146.294 30.1821 146.469 29.6157 146.736 28.8149C147.01 28.0076 147.895 25.5337 149.393 21.3931H151.131L146.531 33.5806C146.076 34.785 145.542 35.6379 144.93 36.1392C144.324 36.647 143.579 36.9009 142.693 36.9009C142.199 36.9009 141.71 36.8455 141.229 36.7349V35.436C141.587 35.5142 141.987 35.5532 142.43 35.5532C143.543 35.5532 144.337 34.9282 144.812 33.6782L145.408 32.1548L141.092 21.3931ZM167.283 32.0962L165.506 27.5552H159.783L158.025 32.0962H156.346L161.99 17.7603H163.387L169.002 32.0962H167.283ZM164.988 26.061L163.328 21.6372C163.113 21.0773 162.892 20.3905 162.664 19.5767C162.521 20.2017 162.316 20.8885 162.049 21.6372L160.369 26.061H164.988ZM174.998 32.2915C173.449 32.2915 172.247 31.8162 171.395 30.8657C170.548 29.9087 170.125 28.5578 170.125 26.813C170.125 25.0226 170.555 23.6392 171.414 22.6626C172.28 21.686 173.51 21.1978 175.105 21.1978C175.62 21.1978 176.134 21.2531 176.648 21.3638C177.163 21.4744 177.566 21.6047 177.859 21.7544L177.361 23.1313C177.003 22.9881 176.613 22.8709 176.189 22.7798C175.766 22.6821 175.392 22.6333 175.066 22.6333C172.892 22.6333 171.805 24.02 171.805 26.7935C171.805 28.1086 172.068 29.1177 172.596 29.8208C173.13 30.5239 173.917 30.8755 174.959 30.8755C175.851 30.8755 176.766 30.6834 177.703 30.2993V31.7349C176.987 32.106 176.085 32.2915 174.998 32.2915ZM184.529 32.2915C182.98 32.2915 181.779 31.8162 180.926 30.8657C180.079 29.9087 179.656 28.5578 179.656 26.813C179.656 25.0226 180.086 23.6392 180.945 22.6626C181.811 21.686 183.042 21.1978 184.637 21.1978C185.151 21.1978 185.665 21.2531 186.18 21.3638C186.694 21.4744 187.098 21.6047 187.391 21.7544L186.893 23.1313C186.535 22.9881 186.144 22.8709 185.721 22.7798C185.298 22.6821 184.923 22.6333 184.598 22.6333C182.423 22.6333 181.336 24.02 181.336 26.7935C181.336 28.1086 181.6 29.1177 182.127 29.8208C182.661 30.5239 183.449 30.8755 184.49 30.8755C185.382 30.8755 186.297 30.6834 187.234 30.2993V31.7349C186.518 32.106 185.617 32.2915 184.529 32.2915ZM199.021 26.7349C199.021 28.4797 198.582 29.8436 197.703 30.8267C196.824 31.8032 195.61 32.2915 194.061 32.2915C193.104 32.2915 192.254 32.0669 191.512 31.6177C190.77 31.1685 190.197 30.5239 189.793 29.6841C189.389 28.8442 189.188 27.8612 189.188 26.7349C189.188 24.9901 189.624 23.6326 190.496 22.6626C191.368 21.686 192.579 21.1978 194.129 21.1978C195.626 21.1978 196.814 21.6958 197.693 22.6919C198.579 23.688 199.021 25.0356 199.021 26.7349ZM190.867 26.7349C190.867 28.1021 191.141 29.1437 191.688 29.8599C192.234 30.576 193.038 30.9341 194.1 30.9341C195.161 30.9341 195.965 30.5793 196.512 29.8696C197.065 29.1535 197.342 28.1086 197.342 26.7349C197.342 25.3742 197.065 24.3423 196.512 23.6392C195.965 22.9295 195.154 22.5747 194.08 22.5747C193.019 22.5747 192.218 22.923 191.678 23.6196C191.137 24.3162 190.867 25.3547 190.867 26.7349ZM203.396 21.3931V28.3364C203.396 29.2088 203.595 29.8599 203.992 30.2896C204.389 30.7192 205.011 30.9341 205.857 30.9341C206.977 30.9341 207.794 30.6281 208.309 30.0161C208.829 29.4041 209.09 28.4048 209.09 27.0181V21.3931H210.711V32.0962H209.373L209.139 30.6606H209.051C208.719 31.188 208.257 31.5916 207.664 31.8716C207.078 32.1515 206.408 32.2915 205.652 32.2915C204.35 32.2915 203.374 31.9823 202.723 31.3638C202.078 30.7453 201.756 29.7557 201.756 28.395V21.3931H203.396ZM221.482 32.0962V25.1724C221.482 24.3 221.284 23.6489 220.887 23.2192C220.49 22.7896 219.868 22.5747 219.021 22.5747C217.902 22.5747 217.081 22.8774 216.561 23.4829C216.04 24.0884 215.779 25.0877 215.779 26.481V32.0962H214.158V21.3931H215.477L215.74 22.8579H215.818C216.15 22.3306 216.616 21.9237 217.215 21.6372C217.814 21.3442 218.481 21.1978 219.217 21.1978C220.506 21.1978 221.476 21.5103 222.127 22.1353C222.778 22.7537 223.104 23.7466 223.104 25.1138V32.0962H221.482ZM229.9 30.9536C230.187 30.9536 230.464 30.9341 230.73 30.895C230.997 30.8494 231.209 30.8039 231.365 30.7583V31.9985C231.189 32.0832 230.929 32.1515 230.584 32.2036C230.245 32.2622 229.939 32.2915 229.666 32.2915C227.596 32.2915 226.561 31.201 226.561 29.02V22.6528H225.027V21.8716L226.561 21.1978L227.244 18.9126H228.182V21.3931H231.287V22.6528H228.182V28.9517C228.182 29.5962 228.335 30.091 228.641 30.436C228.947 30.7811 229.367 30.9536 229.9 30.9536Z" fill="white"/>
</svg>
