<svg width="24" height="20" viewBox="0 0 24 20" fill="none" xmlns="http://www.w3.org/2000/svg">
<path d="M21.5156 4.83936C22.4531 4.13623 23.2969 3.29248 23.9531 2.30811C23.1094 2.68311 22.125 2.96436 21.1406 3.05811C22.1719 2.44873 22.9219 1.51123 23.2969 0.339355C22.3594 0.901855 21.2812 1.32373 20.2031 1.55811C19.2656 0.57373 18 0.0112305 16.5938 0.0112305C13.875 0.0112305 11.6719 2.21436 11.6719 4.93311C11.6719 5.30811 11.7188 5.68311 11.8125 6.05811C7.73438 5.82373 4.07812 3.85498 1.64062 0.901855C1.21875 1.60498 0.984375 2.44873 0.984375 3.38623C0.984375 5.07373 1.82812 6.57373 3.1875 7.46436C2.39062 7.41748 1.59375 7.22998 0.9375 6.85498V6.90186C0.9375 9.29248 2.625 11.2612 4.875 11.73C4.5 11.8237 4.03125 11.9175 3.60938 11.9175C3.28125 11.9175 3 11.8706 2.67188 11.8237C3.28125 13.7925 5.10938 15.1987 7.26562 15.2456C5.57812 16.5581 3.46875 17.355 1.17188 17.355C0.75 17.355 0.375 17.3081 0 17.2612C2.15625 18.6675 4.73438 19.4644 7.54688 19.4644C16.5938 19.4644 21.5156 12.0112 21.5156 5.49561C21.5156 5.26123 21.5156 5.07373 21.5156 4.83936Z" fill="#9F6634"/>
</svg>
