<svg width="24" height="24" viewBox="0 0 24 24" fill="none" xmlns="http://www.w3.org/2000/svg">
<path d="M16.125 7.21436C15.4688 3.04248 13.8281 0.0893555 12 0.0893555C10.125 0.0893555 8.53125 3.04248 7.82812 7.21436H16.125ZM7.5 11.7144C7.5 12.7925 7.54688 13.7769 7.64062 14.7144H16.3125C16.4062 13.7769 16.4531 12.7925 16.4531 11.7144C16.4531 10.6831 16.4062 9.69873 16.3125 8.71436H7.64062C7.54688 9.69873 7.5 10.6831 7.5 11.7144ZM22.6875 7.21436C21.375 4.07373 18.6562 1.58936 15.2812 0.60498C16.4531 2.19873 17.2031 4.58936 17.625 7.21436H22.6875ZM8.67188 0.60498C5.29688 1.58936 2.57812 4.07373 1.26562 7.21436H6.32812C6.75 4.58936 7.5 2.19873 8.67188 0.60498ZM23.2031 8.71436H17.8125C17.9062 9.69873 18 10.73 18 11.7144C18 12.7456 17.9062 13.73 17.8125 14.7144H23.2031C23.4375 13.7769 23.5781 12.7925 23.5781 11.7144C23.5781 10.6831 23.4375 9.69873 23.2031 8.71436ZM6 11.7144C6 10.73 6.04688 9.69873 6.14062 8.71436H0.75C0.515625 9.69873 0.375 10.6831 0.375 11.7144C0.375 12.7925 0.515625 13.7769 0.75 14.7144H6.14062C6.04688 13.73 6 12.7456 6 11.7144ZM7.82812 16.2144C8.53125 20.4331 10.125 23.3394 12 23.3394C13.8281 23.3394 15.4688 20.4331 16.125 16.2144H7.82812ZM15.2812 22.8706C18.6562 21.8862 21.375 19.4019 22.6875 16.2144H17.625C17.25 18.8862 16.4531 21.2769 15.2812 22.8706ZM1.26562 16.2144C2.57812 19.4019 5.29688 21.8862 8.67188 22.8706C7.5 21.2769 6.75 18.8862 6.32812 16.2144H1.26562Z" fill="#9F6634"/>
</svg>
