<svg width="866" height="424" viewBox="0 0 866 424" fill="none" xmlns="http://www.w3.org/2000/svg">
<path d="M35.8204 428.156H829.85C895.667 390.024 861.782 275.261 806.835 251.998C747.67 226.953 841.626 140.344 750.472 112.219C690.967 93.8738 610.288 114.367 570.911 74.8503C524.569 28.4364 447.683 -28.0687 304.441 15.8295C193.981 49.693 253.967 114.989 73.2162 134.663C-19.7211 144.782 -1.77343 231.25 6.88902 249.143C14.4474 264.718 64.3839 289.395 -5.02892 323.399C-106.77 373.234 33.4142 427.251 35.8204 428.156Z" fill="#FFF9F1"/>
<path d="M254.278 299.966C254.278 299.966 335.638 197.076 384.017 197.386C432.397 197.726 485.107 265.17 553.954 322.778C631.123 387.339 530.373 390.052 524.541 390.561C518.738 391.098 318.114 384.031 314.774 380.526C311.434 377.05 257.874 332.416 257.874 332.416L254.278 299.966Z" fill="#F6EECB"/>
<path d="M222.658 279.247C309.565 293.691 439.955 423.435 539.29 423.435C638.597 423.435 659.998 392.398 697.252 398.956C734.506 405.514 784.499 423.435 784.499 423.435L46.4645 425.612C46.4362 425.64 135.75 264.831 222.658 279.247Z" fill="#EAD885"/>
<path d="M616.573 279.247C529.665 293.691 399.276 423.435 299.941 423.435C200.605 423.435 179.232 392.398 141.978 398.956C104.724 405.514 54.731 423.435 54.731 423.435L792.766 425.612C792.794 425.64 703.48 264.831 616.573 279.247Z" fill="#EAD885"/>
<path d="M46.4363 425.64C46.4363 425.64 141.723 342.988 264.583 337.928C305.828 336.232 474.774 370.407 617.025 397.26C622.999 398.391 635.936 409.443 641.994 410.574C709.34 423.209 772.1 425.894 792.398 426.714L46.4363 425.64Z" fill="#96D9C9"/>
<path d="M812.383 334.734L812.525 327.611C812.525 322.325 808.505 318.057 803.523 318.057C790.982 318.057 780.819 328.827 780.819 342.14V351.864C780.819 356.132 778.555 359.835 775.242 361.672C772.213 363.368 770.373 366.732 770.373 370.35V375.467C770.373 381.007 772.836 386.208 776.913 389.685C779.291 391.72 780.819 394.829 780.819 398.334V405.599C780.819 413.627 786.962 420.128 794.521 420.128H798.824C806.382 420.128 812.525 413.627 812.525 405.599C811.279 395.451 814.28 389.6 817.762 386.264C822.858 381.346 825.858 374.421 825.858 367.128V366.11C825.858 358.393 822.49 351.157 816.885 346.239C814.393 344.062 812.383 340.529 812.383 334.734Z" fill="#4E9B87"/>
<path d="M826.481 428.551C826.481 428.551 791.492 382.166 769.496 375.043C747.472 367.919 768.222 396.186 768.222 396.186C768.222 396.186 729.185 353.56 714.86 357.404C701.725 360.938 714.86 387.367 714.86 387.367C714.86 387.367 700.055 372.725 682.136 372.725C664.188 372.725 696.007 427.506 696.007 427.506L826.481 428.551Z" fill="#96D9C9"/>
<path d="M714.832 427.506C714.832 427.506 690.911 363.651 661.3 371.057C637.295 377.05 654.365 409.161 652.893 407.691C651.421 406.221 638.569 384.427 617.733 384.427C596.898 384.427 624.131 413.853 624.131 413.853C624.131 413.853 579.772 400.03 576.29 414.559C573.402 426.629 589.538 427.506 589.538 427.506H714.832Z" fill="#46996B"/>
<path d="M168.22 415.577C168.362 414.786 168.418 413.966 168.418 413.146C168.418 403.903 159.756 396.412 149.055 396.412C138.354 396.412 129.692 403.903 129.692 413.146C129.692 413.966 129.749 414.786 129.89 415.577H168.22Z" fill="#46996B"/>
<path d="M190.159 411.478C190.301 410.348 190.358 409.217 190.358 408.03C190.358 394.999 181.695 384.427 170.995 384.427C160.294 384.427 151.631 394.999 151.631 408.03C151.631 409.189 151.688 410.348 151.83 411.478H190.159Z" fill="#73BF95"/>
<path d="M183.054 425.923C182.913 425.131 182.856 424.312 182.856 423.492C182.856 414.249 191.518 406.758 202.219 406.758C212.92 406.758 221.582 414.249 221.582 423.492C221.582 424.312 221.526 425.131 221.384 425.923H183.054Z" fill="#73BF95"/>
<path d="M152.056 425.923C151.886 424.792 151.801 423.661 151.801 422.474C151.801 409.443 162.785 398.872 176.345 398.872C189.905 398.872 200.888 409.443 200.888 422.474C200.888 423.633 200.803 424.792 200.634 425.923H152.056Z" fill="#46996B"/>
<path d="M170.91 398.9C164.144 398.9 158.086 402.264 154.066 407.493C152.028 407.012 149.876 406.758 147.64 406.758C135.609 406.758 125.842 414.249 125.842 423.492C125.842 424.312 125.927 425.131 126.069 425.923H192.452C192.594 424.792 192.679 423.662 192.679 422.474C192.707 409.472 182.941 398.9 170.91 398.9Z" fill="#73BF95"/>
<path d="M86.9462 376.23C81.2562 367.326 80.1805 356.584 80.2937 349.15C80.4069 341.066 81.9073 335.017 81.9356 334.96L81.511 334.819C81.4827 334.876 79.9823 340.981 79.8691 349.122C79.7558 356.641 80.8316 367.495 86.6065 376.512L86.9462 376.23Z" fill="#46996B"/>
<path d="M83.3228 333.49C83.1813 335.328 82.3603 336.854 81.1997 337.787C80.2088 336.515 79.6427 334.762 79.7842 332.953C79.9258 331.116 80.7467 329.59 81.9074 328.657C82.8982 329.9 83.4643 331.653 83.3228 333.49Z" fill="#46996B"/>
<path d="M79.4731 337.702C80.4356 339.285 80.747 341.094 80.4356 342.649C78.9635 342.31 77.5198 341.264 76.5573 339.681C75.5948 338.098 75.2834 336.289 75.5948 334.734C77.0668 335.073 78.5106 336.119 79.4731 337.702Z" fill="#46996B"/>
<path d="M77.2933 342.677C78.7936 343.666 79.8127 345.165 80.2091 346.748C78.7936 347.143 77.0951 346.917 75.5947 345.928C74.0944 344.938 73.0753 343.44 72.679 341.857C74.0944 341.462 75.7929 341.688 77.2933 342.677Z" fill="#46996B"/>
<path d="M77.9442 349.602C79.1331 350.366 79.8691 351.694 80.0673 353.164C78.8217 353.701 77.4346 353.616 76.2456 352.853C75.0567 352.09 74.3207 350.761 74.1225 349.292C75.3681 348.754 76.7552 348.811 77.9442 349.602Z" fill="#46996B"/>
<path d="M82.8697 341.405C84.2002 340.698 85.7006 340.642 86.9745 341.179C86.6348 342.564 85.7289 343.808 84.3984 344.514C83.0679 345.221 81.5675 345.278 80.2936 344.741C80.6333 343.355 81.5392 342.112 82.8697 341.405Z" fill="#46996B"/>
<path d="M82.7286 346.182C84.0591 345.476 85.5594 345.419 86.8333 345.956C86.4936 347.341 85.5877 348.585 84.2572 349.292C82.9267 349.998 81.4264 350.055 80.1525 349.518C80.4922 348.133 81.3981 346.889 82.7286 346.182Z" fill="#46996B"/>
<path d="M78.8217 357.206C79.5294 357.376 80.1239 357.856 80.4636 358.478C79.954 358.902 79.2746 359.072 78.5669 358.902C77.8592 358.733 77.2647 358.252 76.925 357.63C77.4345 357.206 78.1139 357.037 78.8217 357.206Z" fill="#46996B"/>
<path d="M84.5966 382.533C71.5463 379.424 61.5816 369.785 55.5519 362.237C48.9843 354.068 45.474 346.521 45.4174 346.436L44.8795 346.719C44.9078 346.804 48.4464 354.408 55.0706 362.633C61.1853 370.237 71.2349 379.989 84.455 383.127L84.5966 382.533Z" fill="#46996B"/>
<path d="M45.5877 343.553C46.9748 345.532 47.4278 347.878 47.0314 349.998C44.9932 349.744 42.9833 348.556 41.5962 346.606C40.209 344.627 39.7561 342.281 40.1524 340.161C42.219 340.416 44.2006 341.574 45.5877 343.553Z" fill="#46996B"/>
<path d="M45.2481 351.638C47.5128 352.231 49.3245 353.729 50.287 355.595C48.5319 356.726 46.2389 357.15 43.9459 356.556C41.6812 355.962 39.8694 354.464 38.9069 352.599C40.6904 351.468 42.9551 351.044 45.2481 351.638Z" fill="#46996B"/>
<path d="M47.1732 358.789C49.4662 358.252 51.7309 358.732 53.4577 359.92C52.382 361.757 50.4853 363.199 48.1923 363.764C45.8993 364.301 43.6346 363.82 41.9078 362.633C43.0118 360.796 44.8802 359.354 47.1732 358.789Z" fill="#46996B"/>
<path d="M52.3815 365.319C54.6745 364.781 56.9392 365.262 58.666 366.449C57.5903 368.287 55.6936 369.728 53.4006 370.293C51.1076 370.831 48.8429 370.35 47.1161 369.163C48.1918 367.297 50.0602 365.856 52.3815 365.319Z" fill="#46996B"/>
<path d="M50.8244 354.492C50.7112 352.288 51.4472 350.196 52.6928 348.698C54.0799 349.885 55.0141 351.751 55.1273 353.984C55.2406 356.188 54.5045 358.28 53.259 359.778C51.8718 358.591 50.9376 356.697 50.8244 354.492Z" fill="#46996B"/>
<path d="M56.2314 361.22C56.0899 359.015 56.7693 356.895 58.0149 355.397C59.4303 356.556 60.3928 358.422 60.5343 360.626C60.6759 362.831 59.9965 364.923 58.7509 366.449C57.3638 365.29 56.4013 363.425 56.2314 361.22Z" fill="#46996B"/>
<path d="M60.7327 371.735C61.582 371.198 62.5445 371.057 63.422 371.339C63.2805 372.272 62.7426 373.12 61.8934 373.686C61.0441 374.223 60.0816 374.364 59.204 374.081C59.3456 373.149 59.8834 372.272 60.7327 371.735Z" fill="#46996B"/>
<path d="M70.4706 425.357C70.4706 422.87 85.4742 425.809 86.7197 422.417C87.9653 419.025 73.8676 418.856 73.8676 414.277C73.8676 409.697 81.058 412.92 85.276 412.92C89.494 412.92 76.9533 410.969 76.9533 409.33C76.9533 407.719 81.3411 408.567 81.3411 406.842C81.3411 405.118 58.2412 403.818 60.9589 399.634C63.6482 395.423 76.0757 400.85 79.4727 398.673C82.8698 396.497 61.2703 394.122 60.7324 390.9C60.1945 387.678 76.6702 393.67 78.9915 391.352C81.3128 389.034 52.9475 380.668 54.1365 374.505C55.3254 368.343 75.6227 382.392 80.7183 380.865C85.7856 379.367 55.1273 357.771 62.2328 349.376C69.3665 340.953 82.983 377.219 87.6256 375.919C92.2682 374.618 81.794 353.023 86.5499 349.263C91.3057 345.504 104.158 373.46 105.007 380.47C105.856 387.48 108.376 371.594 115.821 368.993C123.266 366.393 116.047 382.703 117.321 387.649C118.624 392.624 124.653 374.929 132.835 376.201C140.987 377.502 118.086 393.67 120.35 398.419C122.615 403.168 140.308 382.561 145.857 388.102C151.405 393.642 124.568 408.991 126.012 413.202C127.484 417.414 143.592 410.206 148.234 414.842C152.877 419.478 130.938 422.417 128.022 422.417C125.106 422.417 114.009 426.064 124.852 425.357C135.722 424.65 70.4706 427.845 70.4706 425.357Z" fill="#46996B"/>
<path d="M113.245 428.24C113.245 428.24 131.306 429.201 136.572 425.894C141.837 422.587 137.676 420.015 137.676 420.015C137.676 420.015 154.378 419.647 154.349 415.69C154.321 411.733 150.245 411.959 150.245 411.959C150.245 411.959 158.681 406.249 157.095 402.659C154.689 397.175 140.931 406.729 140.931 406.729C140.931 406.729 145.432 401.387 141.809 400.143C131.844 396.723 113.245 428.24 113.245 428.24Z" fill="#73BF95"/>
<path d="M157.123 402.687C158.709 406.249 150.273 411.987 150.273 411.987C150.273 411.987 156.359 411.902 155.368 415.746C154.377 419.562 139.091 420.863 139.091 420.863C139.091 420.863 144.441 421.909 139.176 425.216C133.91 428.523 113.273 428.24 113.273 428.24L157.123 402.687Z" fill="#96D9C9"/>
<path d="M43.0959 411.648C43.2091 410.546 43.2657 409.415 43.2657 408.284C43.2657 395.479 35.9621 385.105 26.9882 385.105C17.9861 385.105 10.7108 395.479 10.7108 408.284C10.7108 409.443 10.7674 410.546 10.8806 411.648H43.0959Z" fill="#46996B"/>
<path d="M61.4963 405.966C61.6095 404.412 61.6662 402.829 61.6662 401.189C61.6662 383.155 54.3625 368.513 45.3887 368.513C36.3865 368.513 29.1112 383.155 29.1112 401.189C29.1112 402.8 29.1678 404.412 29.2811 405.966H61.4963Z" fill="#73BF95"/>
<path d="M55.5516 425.979C55.4384 424.877 55.3818 423.746 55.3818 422.587C55.3818 409.782 62.6854 399.408 71.6592 399.408C80.6614 399.408 87.9367 409.782 87.9367 422.587C87.9367 423.746 87.8801 424.848 87.7668 425.979H55.5516Z" fill="#73BF95"/>
<path d="M29.4796 425.979C29.338 424.425 29.2531 422.842 29.2531 421.202C29.2531 403.168 38.4817 388.526 49.8901 388.526C61.2985 388.526 70.5271 403.168 70.5271 421.202C70.5271 422.813 70.4422 424.425 70.3007 425.979H29.4796Z" fill="#46996B"/>
<path d="M45.3323 388.526C39.6423 388.526 34.5467 393.162 31.178 400.454C29.4795 399.776 27.6394 399.437 25.771 399.437C15.6649 399.437 7.45535 409.811 7.45535 422.616C7.45535 423.774 7.51197 424.877 7.65351 426.008H63.4499C63.5631 424.453 63.648 422.87 63.648 421.23C63.648 403.168 55.4385 388.526 45.3323 388.526Z" fill="#73BF95"/>
<path opacity="0.5" d="M376.77 101.477C375.326 95.2022 369.693 90.51 362.955 90.51C361.71 90.51 360.521 90.6796 359.388 90.9622C356.076 83.8673 348.857 78.9489 340.478 78.9489C338.327 78.9489 336.232 79.2881 334.278 79.8817C329.777 72.4193 321.596 67.4443 312.226 67.4443C301.101 67.4443 291.617 74.4827 288.05 84.3761C285.503 82.9628 282.587 82.143 279.473 82.143C269.735 82.143 261.808 90.0294 261.808 99.7814C261.808 100.347 261.837 100.94 261.893 101.506H376.77V101.477Z" fill="#EAD885"/>
<path opacity="0.5" d="M652.468 180.539C653.176 177.515 655.865 175.254 659.12 175.254C659.715 175.254 660.281 175.338 660.847 175.48C662.461 172.059 665.915 169.685 669.963 169.685C671.01 169.685 672.001 169.855 672.963 170.137C675.143 166.547 679.078 164.145 683.579 164.145C688.929 164.145 693.487 167.537 695.214 172.286C696.431 171.607 697.847 171.211 699.347 171.211C704.046 171.211 707.84 174.999 707.84 179.691C707.84 179.974 707.811 180.257 707.811 180.511H652.468V180.539Z" fill="#EAD885"/>
<path opacity="0.5" d="M449.127 159.481C448.278 155.749 444.937 152.979 440.946 152.979C440.21 152.979 439.502 153.064 438.823 153.262C436.841 149.05 432.595 146.139 427.641 146.139C426.367 146.139 425.121 146.337 423.961 146.704C421.3 142.294 416.459 139.355 410.91 139.355C404.314 139.355 398.709 143.538 396.586 149.361C395.086 148.513 393.359 148.033 391.519 148.033C385.744 148.033 381.073 152.697 381.073 158.463C381.073 158.802 381.101 159.141 381.13 159.481H449.127Z" fill="#EAD885"/>
<path opacity="0.5" d="M568.731 128.359C567.57 123.328 563.069 119.596 557.691 119.596C556.7 119.596 555.738 119.71 554.832 119.964C552.171 114.282 546.396 110.353 539.715 110.353C537.988 110.353 536.318 110.608 534.761 111.116C531.166 105.152 524.626 101.195 517.153 101.195C508.264 101.195 500.677 106.82 497.818 114.706C495.78 113.576 493.458 112.926 490.967 112.926C483.182 112.926 476.87 119.229 476.87 127.002C476.87 127.455 476.898 127.907 476.926 128.359H568.731Z" fill="#EAD885"/>
<path opacity="0.5" d="M154.632 182.688C155.198 180.172 157.463 178.306 160.124 178.306C160.605 178.306 161.087 178.363 161.539 178.476C162.87 175.649 165.729 173.699 169.07 173.699C169.919 173.699 170.768 173.84 171.532 174.066C173.316 171.098 176.6 169.12 180.308 169.12C184.753 169.12 188.518 171.918 189.933 175.847C190.952 175.282 192.113 174.971 193.358 174.971C197.237 174.971 200.379 178.108 200.379 181.981C200.379 182.207 200.379 182.433 200.351 182.659H154.632V182.688Z" fill="#EAD885"/>
<path d="M673.53 342.112C675.851 341.038 679.729 336.204 679.729 336.204C685.731 339.935 698.639 352.118 698.639 352.118C698.639 352.118 696.63 353.814 694.705 353.192C692.78 352.542 683.919 349.631 680.126 351.412C679.135 351.864 668.066 356.952 658.158 360.598C656.516 357.093 659.205 349.433 657.167 346.211C662.433 343.864 672.765 342.451 673.53 342.112Z" fill="#F7A491"/>
<path d="M676.134 340.133C676.134 340.133 687.175 349.292 688.335 350.988C689.269 352.373 702.178 356.16 702.603 354.21C703.027 352.26 685.589 333.604 683.07 333.095C680.579 332.614 676.134 340.133 676.134 340.133Z" fill="#3E332B"/>
<path d="M614.733 378.095C615.808 380.328 620.734 384.088 620.734 384.088C616.771 389.854 603.862 402.263 603.862 402.263C603.862 402.263 602.135 400.341 602.843 398.476C603.551 396.61 606.891 385.19 605.136 381.544C604.683 380.583 601.286 373.488 598.398 369.559C602.079 368.004 605.617 365.828 609.014 363.849C611.336 368.909 614.365 377.332 614.733 378.095Z" fill="#F7A491"/>
<path d="M608.137 298.977C608.137 298.977 584.81 327.272 582.687 332.473C581.102 336.374 597.011 373.092 597.011 373.092C597.011 373.092 608.193 371.085 612.44 366.054C612.44 366.054 603.749 340.19 604.853 338.861C605.957 337.533 633.869 317.294 633.869 317.294L628.547 301.973L608.137 298.977Z" fill="#907764"/>
<path d="M613.798 297.705C613.798 297.705 622.206 312.714 622.829 318.848C623.31 323.54 625.122 361.361 635.426 363.962C641.286 365.432 667.471 359.665 667.471 359.665L663.31 342.875C663.31 342.875 650.883 346.041 649.665 345.108C648.448 344.147 656.743 314.636 653.402 305.139C650.062 295.641 629.963 291.712 629.963 291.712L613.798 297.705Z" fill="#907764"/>
<path d="M616.544 380.385C616.544 380.385 606.353 391.805 604.4 392.992C602.815 393.981 600.239 406.503 602.418 406.955C604.598 407.408 623.933 390.222 624.528 387.621C625.15 385.021 616.544 380.385 616.544 380.385Z" fill="#3E332B"/>
<path d="M642.362 227.236C641.881 229.412 642.673 231.476 644.145 231.787C645.617 232.126 647.231 230.628 647.712 228.423C648.193 226.247 647.401 224.183 645.929 223.872C644.457 223.561 642.843 225.059 642.362 227.236Z" fill="#F7A491"/>
<path d="M616.799 225.173C616.969 227.406 618.328 229.13 619.828 229.017C621.328 228.904 622.433 227.01 622.263 224.777C622.093 222.544 620.734 220.819 619.234 220.933C617.705 221.017 616.629 222.939 616.799 225.173Z" fill="#F7A491"/>
<path d="M618.668 239.419C618.668 239.419 614.761 288.773 619.8 292.702C624.811 296.631 650.713 302.708 656.063 299.938C661.442 297.168 666.226 240.719 662.348 235.659C658.469 230.6 620.338 231.448 618.668 239.419Z" fill="#907764"/>
<path d="M674.606 228.621C678.088 225.681 685.788 215.11 688.392 211.491C688.364 211.096 688.392 208.863 690.458 205.782C691.93 203.605 692.666 198.941 693.94 200.072C695.214 201.202 692.865 205.131 694.167 204.99C695.441 204.849 700.876 196.991 702.037 198.036C703.197 199.082 697.564 206.149 698.696 206.036C699.829 205.923 704.245 198.913 705.887 200.354C707.529 201.824 699.913 208.128 700.791 208.919C701.669 209.711 706.368 205.612 707.67 206.771C708.972 207.958 700.989 212.057 701.669 212C702.348 211.944 707.161 211.209 707.302 212.142C707.472 213.187 695.412 216.325 694.139 218.332C691.562 223.816 687.005 233.822 681.739 238.599C675.285 244.45 660.281 257.029 660.281 257.029L650.883 247.56C650.883 247.56 670.501 232.098 674.606 228.621Z" fill="#F7A491"/>
<path d="M694.45 207.251C694.846 207.845 695.044 208.495 695.186 209.145C695.186 209.258 695.752 211.407 694.082 213.301C694.62 211.887 695.242 210.276 694.45 207.251Z" fill="#E6898F"/>
<path d="M598.399 226.331C595.001 223.335 587.5 212.594 584.98 208.919C585.009 208.523 585.037 206.29 583.027 203.181C581.611 200.976 580.96 196.284 579.658 197.415C578.356 198.517 580.621 202.503 579.347 202.333C578.073 202.163 572.808 194.22 571.619 195.21C570.43 196.227 575.921 203.407 574.789 203.266C573.657 203.124 569.382 196.03 567.712 197.443C566.042 198.856 573.515 205.329 572.638 206.092C571.732 206.856 567.146 202.672 565.815 203.803C564.485 204.962 572.383 209.23 571.703 209.145C571.024 209.06 566.24 208.241 566.07 209.174C565.872 210.219 577.875 213.583 579.092 215.618C581.555 221.159 585.914 231.25 591.067 236.14C597.379 242.133 612.157 255.022 612.157 255.022L621.725 245.751C621.725 245.779 602.447 229.893 598.399 226.331Z" fill="#F7A491"/>
<path d="M579.007 204.566C578.611 205.131 578.384 205.781 578.243 206.46C578.243 206.573 577.648 208.721 579.262 210.643C578.752 209.202 578.158 207.59 579.007 204.566Z" fill="#E6898F"/>
<path d="M607.91 233.002L599.899 246.57L613.883 262.682C613.883 262.682 614.364 275.883 613.176 280.151C611.958 284.419 604.173 302.369 604.173 302.369C604.173 302.369 629.934 314.099 653.119 309.068C653.119 309.068 655.554 274.328 656.997 270.851C658.441 267.375 674.351 249.029 674.351 249.029L663.961 236.083L650.005 246.203C650.005 246.203 622.064 245.129 620.592 243.97C619.092 242.896 607.91 233.002 607.91 233.002Z" fill="#E1C0A3"/>
<path d="M635.709 203.859C635.709 203.859 625.858 200.1 623.707 208.58C623.707 208.58 615.299 208.75 617.79 217.173C617.79 217.173 609.949 222.402 616.573 232.55C616.573 232.55 615.497 243.009 627.5 242.189C627.5 242.189 629.736 245.581 635.058 244.083C640.38 242.585 641.598 240.974 641.598 240.974C641.598 240.974 651.591 242.613 653.431 233.568C653.431 233.568 659.857 231.165 654.365 223.222C654.365 223.222 658.809 211.491 648.194 209.456C648.165 209.428 645.617 198.319 635.709 203.859Z" fill="#184655"/>
<path d="M629.17 238.571C629.198 238.712 628.632 244.026 628.321 246.825C628.208 247.871 628.859 248.86 629.849 249.171C632.539 250.019 637.719 251.036 640.805 247.475C641.088 247.164 641.201 246.712 641.145 246.288L639.22 234.048L629.17 238.571Z" fill="#F7A491"/>
<path d="M628.887 241.539C631.746 242.556 635.143 242.189 638.654 239.504C639.106 239.164 639.503 238.797 639.899 238.429L639.22 234.048L629.199 238.571C629.17 238.656 629.057 239.928 628.887 241.539Z" fill="#E6898F"/>
<path d="M633.077 209.258C633.077 209.258 637.776 209.908 641.003 214.007C644.23 218.106 647.259 230.713 638.399 237.468C629.538 244.224 621.527 236.423 620.677 228.197C619.856 220 622.234 209.06 633.077 209.258Z" fill="#F7A491"/>
<path d="M655.214 294.935C644.4 286.483 642.673 256.69 642.9 243.998L647.118 244.083C646.92 254.852 648.477 284.363 657.818 291.656L655.214 294.935Z" fill="#907764"/>
<path d="M612.043 283.402L611.109 279.699C616.007 257.623 621.187 243.15 621.244 243.009L625.207 244.422C625.15 244.592 619.545 264.181 612.043 283.402Z" fill="#907764"/>
<path d="M214.505 228.056C216.317 223.985 218.61 211.322 219.374 207.025C219.204 206.686 218.27 204.707 218.78 201.089C219.148 198.545 217.817 194.107 219.431 194.56C221.044 195.012 220.648 199.478 221.724 198.828C222.799 198.178 224.243 188.906 225.715 189.302C227.187 189.698 225.234 198.404 226.168 197.81C227.131 197.217 228.036 189.133 230.103 189.726C232.17 190.32 228.15 199.139 229.254 199.478C230.358 199.789 232.764 194.164 234.434 194.645C236.104 195.125 230.811 202.192 231.349 201.824C231.915 201.485 235.85 198.8 236.388 199.535C236.982 200.383 227.668 208.297 227.385 210.615C227.442 216.579 227.697 227.349 225.064 233.85C221.865 241.793 213.939 259.319 213.939 259.319L201.568 254.937C201.624 254.937 212.353 232.889 214.505 228.056Z" fill="#F7A491"/>
<path d="M222.913 200.694C223.507 201.033 223.988 201.513 224.385 202.079C224.413 202.192 225.857 203.831 225.177 206.234C225.064 204.679 224.923 203.011 222.913 200.694Z" fill="#E6898F"/>
<path d="M135.382 255.927C135.382 255.927 135.92 253.92 134.561 250.584C133.684 248.436 133.797 244.309 132.58 245.072C131.334 245.835 132.665 249.623 131.646 249.284C130.598 248.945 127.343 241.228 126.21 241.935C125.078 242.613 128.645 249.708 127.739 249.397C126.805 249.086 124.257 242.274 122.672 243.263C121.087 244.252 126.409 251.008 125.559 251.517C124.71 252.054 121.483 247.701 120.209 248.492C118.935 249.284 124.908 254.202 124.37 254.033C123.832 253.863 119.954 252.393 119.699 253.185C119.388 254.061 127.428 257.566 128.164 259.516C128.9 261.467 141.214 281.395 145.29 281.847C149.367 282.299 169.041 271.869 170.825 267.997C172.58 264.096 171.391 259.658 168.787 258.81C166.182 257.962 147.753 268.421 146.932 268.166C146.026 267.855 135.382 255.927 135.382 255.927Z" fill="#F7A491"/>
<path d="M131.787 250.669C131.334 251.178 131.023 251.772 130.796 252.422C130.796 252.535 129.919 254.542 131.278 256.605C130.938 255.135 130.57 253.496 131.787 250.669Z" fill="#E6898F"/>
<path d="M152.084 348.924C149.961 348.189 146.14 344.317 146.14 344.317C141.242 348.104 131.051 359.92 131.051 359.92C131.051 359.92 132.948 361.22 134.561 360.485C136.175 359.75 143.648 356.415 147.13 357.63C148.036 357.941 158.171 361.361 167.116 363.679C168.22 360.457 165.191 354.04 166.692 351.016C161.936 349.461 152.792 349.15 152.084 348.924Z" fill="#F7A491"/>
<path d="M149.65 347.426C149.65 347.426 140.846 356.415 139.997 357.998C139.289 359.298 128.362 363.764 127.824 362.096C127.286 360.429 140.818 342.564 142.969 341.914C145.12 341.264 149.65 347.426 149.65 347.426Z" fill="#3E332B"/>
<path d="M206.635 375.043C205.899 377.078 201.936 380.809 201.936 380.809C205.928 385.501 218.299 395.169 218.299 395.169C218.299 395.169 219.629 393.331 218.865 391.777C218.072 390.222 214.137 380.555 215.326 377.191C215.638 376.315 217.959 369.813 220.11 366.139C216.77 365.121 213.486 363.538 210.344 362.125C208.787 366.732 206.89 374.364 206.635 375.043Z" fill="#F7A491"/>
<path d="M205.276 305.394C205.276 305.394 228.178 327.979 230.528 332.332C232.283 335.582 221.695 369.05 221.695 369.05C221.695 369.05 211.759 368.287 207.598 364.301C207.598 364.301 212.863 340.953 211.759 339.907C210.655 338.861 184.498 323.71 184.498 323.71L187.753 309.86L205.276 305.394Z" fill="#907764"/>
<path d="M200.209 304.8C200.209 304.8 194.236 318.65 194.236 324.078C194.236 328.205 196.076 361.39 187.301 364.584C182.347 366.393 158.935 363.708 158.935 363.708L161.059 348.698C161.059 348.698 172.184 350.337 173.175 349.405C174.165 348.472 164.257 323.456 166.324 314.863C168.391 306.27 185.546 301.04 185.546 301.04L200.209 304.8Z" fill="#907764"/>
<path d="M207.626 240.38C207.626 240.38 210.429 241.228 219.006 252.874L205.192 274.668L196.784 254.429L207.626 240.38Z" fill="#E6898F"/>
<path d="M187.527 254.626C187.527 254.626 195.142 253.778 197.888 252.761C200.634 251.771 218.638 311.103 212.325 312.432C199.162 315.258 165.022 322.777 165.022 322.777C165.022 322.777 164.427 319.385 166.267 313.534C169.466 303.386 171.278 280.179 171.278 276.109C171.278 273.706 158.822 282.045 158.822 282.045L153.585 263.191C153.585 263.191 169.494 256.803 175.071 255.672C176.628 255.361 187.527 254.626 187.527 254.626Z" fill="#E6898F"/>
<path d="M205.277 377.219C205.277 377.219 215.213 386.265 216.996 387.141C218.468 387.848 221.837 398.561 219.997 399.154C218.129 399.748 199.7 386.491 198.935 384.258C198.199 382.025 205.277 377.219 205.277 377.219Z" fill="#3E332B"/>
<path d="M187.725 214.968C187.725 214.968 193.755 212.792 197.633 218.897C201.54 225.003 199.416 224.409 201.313 227.462C203.21 230.515 208.164 229.893 208.164 234.614C208.164 239.334 205.956 240.069 205.956 240.069C205.956 240.069 207.966 243.744 205.757 247.531C203.549 251.319 198.029 254.57 193.415 254.061C193.415 254.061 186.479 257.849 179.544 256.068C172.608 254.287 175.014 254.287 172.183 254.287C169.353 254.287 161.653 250.386 162.927 244.733C162.927 244.733 158.256 239.193 162.785 234.642C167.343 230.119 168.192 225.483 170.825 219.406C173.457 213.329 184.583 213.498 187.725 214.968Z" fill="#184655"/>
<path d="M191.745 247.419C191.745 247.419 191.49 255.785 192.283 256.577C193.075 257.368 194.179 258.669 193.019 260.676C191.858 262.683 186.847 261.411 184.498 260.252C182.261 259.149 180.789 257.114 180.789 257.114L181.95 243.857L191.745 247.419Z" fill="#F7A491"/>
<path d="M188.404 250.895C186.791 250.33 183.96 249.256 181.78 245.723L181.95 243.857L191.745 247.419C191.745 247.419 191.688 249.454 191.717 251.63C190.358 251.574 189.197 251.15 188.404 250.895Z" fill="#F7A491"/>
<path d="M180.251 234.388C180.251 234.388 180.025 229.469 176.996 230.43C173.967 231.391 176.288 238.825 178.779 238.571C181.271 238.317 180.251 234.388 180.251 234.388Z" fill="#F7A491"/>
<path d="M189.763 218.304C189.763 218.304 194.491 218.191 196.925 221.865C199.36 225.54 201.993 236.055 197.973 243.32C193.981 250.584 188.857 248.775 186.762 248.04C184.668 247.305 180.506 245.666 178.383 238.882C176.288 232.126 177.817 216.89 189.763 218.304Z" fill="#F7A491"/>
<path d="M279.955 339.37C279.955 339.37 276.076 344.26 275.312 344.995C274.576 345.73 274.576 345.73 274.576 345.73L273.444 346.126L272.991 346.267L271.915 352.571C271.915 352.571 282.304 363.284 282.531 363.51C282.757 363.736 283.663 359.553 283.663 359.553C283.663 359.553 282.814 353.447 284.031 350.959C285.248 348.5 286.664 346.013 286.664 346.013L279.955 339.37Z" fill="#F7A491"/>
<path d="M264.696 350.733C263.28 348.924 271.66 346.126 273.443 346.126L283.691 359.581C283.691 359.581 286.748 367.92 286.748 370.633C286.748 371.283 286.239 371.877 284.625 370.69C279.501 366.874 267.81 354.776 264.696 350.733Z" fill="#3E332B"/>
<path d="M380.988 328.77C380.988 328.77 384.555 333.886 385.064 334.819C385.574 335.752 385.574 335.752 385.574 335.752L385.63 336.939L385.659 337.42L391.405 340.246C391.405 340.246 404.654 333.406 404.965 333.236C405.248 333.067 401.511 331.003 401.511 331.003C401.511 331.003 395.397 330.07 393.387 328.176C391.377 326.311 389.395 324.247 389.395 324.247L380.988 328.77Z" fill="#F7A491"/>
<path d="M387.527 346.635C385.376 347.455 385.121 338.635 385.63 336.939L401.483 331.003C401.483 331.003 410.372 330.494 412.948 331.258C413.571 331.456 413.996 332.106 412.382 333.293C407.258 337.109 392.283 344.797 387.527 346.635Z" fill="#3E332B"/>
<path d="M365.673 306.976C368.702 313.534 377.195 325.689 382.63 333.236C384.668 331.879 388.292 329.222 391.689 325.378C382.602 307.485 375.355 290.101 373.288 286.455C370.118 280.858 336.034 257.595 336.034 257.595L328.504 252.846L319.049 277.183L358.426 298.186C358.426 298.186 364.965 305.422 365.673 306.976Z" fill="#907764"/>
<path d="M317.152 245.129C317.435 245.242 313.217 249.821 309.169 252.987C305.857 256.464 302.715 260.619 301.526 265.255C299.685 272.293 299.601 307.344 298.157 309.775C289.608 316.813 280.577 330.72 276.161 341.603C278.029 343.469 282.644 346.719 286.89 348.613C296.883 336.713 312.651 317.859 313.925 315.824C317.577 307.203 328.957 263.135 328.957 263.135L332.156 252.931C332.099 252.931 317.18 245.157 317.152 245.129Z" fill="#907764"/>
<path d="M295.835 156.598C292.099 162.703 293.146 175.056 295.892 179.154C298.638 183.225 305.517 184.751 305.517 184.751L315.566 188.256C315.566 188.256 323.266 178.476 325.559 172.172C326.437 169.742 326.635 168.159 325.927 162.901C325.021 156.117 323.181 151.029 315.821 149.927C308.687 148.852 300.365 149.22 295.835 156.598Z" fill="#13375B"/>
<path d="M246.267 218.304C245.984 217.399 250.4 216.834 250.655 215.929C250.909 215.025 245.163 214.742 244.993 213.923C244.682 212.453 251.306 213.866 251.193 213.159C251.079 212.481 244.314 210.672 245.106 209.513C245.899 208.354 251.929 212.113 252.155 211.322C252.381 210.531 246.21 208.326 246.408 206.601C246.493 205.669 256.43 211.689 257.647 211.209C258.836 210.757 256.571 206.234 257.534 205.64C258.496 205.019 260.817 214.742 261.44 215.081C262.063 215.421 275.481 223.788 280.322 225.229C280.973 223.618 288.362 213.781 288.956 212.255C291.617 214.318 294.42 214.686 297.166 216.58C294.901 221.639 284.936 235.49 283.493 236.084C279.077 237.864 262.799 223.279 259.544 220.791C256.288 218.276 254.335 218.982 252.098 218.134C249.89 217.286 246.55 219.208 246.267 218.304Z" fill="#F7A491"/>
<path d="M326.324 194.673C326.324 194.673 337.987 175.565 340.79 171.522C343.592 167.48 351.151 151.227 351.406 150.605C351.689 149.955 346.989 141.955 348.122 141.729C349.254 141.503 350.301 145.941 351.519 145.461C352.736 144.98 356.614 134.55 357.265 135.115C358.483 136.133 355.142 141.588 355.793 141.955C356.444 142.323 358.766 135.935 360.068 136.189C361.399 136.443 357.322 142.04 357.662 142.549C358.001 143.058 362.219 137.8 362.899 138.987C363.267 139.638 359.021 143.567 359.813 143.991C360.578 144.415 364.314 141.899 364.654 142.69C364.994 143.482 361.229 144.358 360.04 146.393C358.851 148.4 356.897 149.22 355.963 153.008C355.029 156.795 353.302 170.533 348.999 177.261C344.696 183.988 335.185 198.856 335.185 198.856L326.324 194.673Z" fill="#F79C8D"/>
<path d="M334.562 205.753C335.326 202.079 341.639 189.443 342.63 187.182C342.63 187.182 342.686 181.981 336.6 178.024C336.6 178.024 322.927 194.221 318.765 194.447C314.604 194.701 300.053 194.758 297.449 196.199C294.845 197.641 282.332 222.091 282.332 222.091C282.332 222.091 281.766 225.54 288.645 229.978C288.645 229.978 299.148 216.071 299.997 215.194C300.506 217.117 302.488 256.436 302.205 263.078C302.205 263.078 334.222 269.269 341.101 260.76C341.101 260.76 334.986 246.033 335.751 237.638C336.94 224.466 335.298 219.067 334.562 205.753Z" fill="#E1C0A3"/>
<path d="M311.094 184.836C311.094 184.836 312.594 191.394 312.255 193.91C311.915 196.425 313.33 204.736 320.04 205.188C326.749 205.64 321.427 194.842 320.804 192.298C320.209 189.754 320.124 182.038 320.124 182.038L311.094 184.836Z" fill="#F7A491"/>
<path d="M320.209 185.91C320.124 183.79 320.096 182.038 320.096 182.038L311.066 184.836C311.066 184.836 311.377 186.165 311.66 187.889C315.623 188.765 318.483 187.776 320.209 185.91Z" fill="#E6898F"/>
<path d="M306.961 156.993C306.961 156.993 302.884 159.142 301.242 164.06C299.601 168.978 300.733 181.896 310.896 185.373C321.059 188.878 325.899 178.872 324.116 170.844C322.304 162.816 318.114 152.584 306.961 156.993Z" fill="#F7A491"/>
<path d="M325.531 167.82C325.248 169.94 324.059 171.522 322.87 171.353C321.681 171.183 320.945 169.318 321.228 167.198C321.512 165.078 322.7 163.495 323.889 163.664C325.078 163.834 325.814 165.7 325.531 167.82Z" fill="#F7A491"/>
<path d="M303.79 175.197C304.923 177.119 304.838 179.324 303.592 180.116C302.347 180.907 300.422 180.003 299.289 178.109C298.157 176.187 298.242 173.982 299.487 173.19C300.705 172.399 302.63 173.303 303.79 175.197Z" fill="#F7A491"/>
<path d="M311.405 177.628L318.058 175.96C318.058 175.96 318.539 178.561 315.652 179.38C312.113 180.398 311.405 177.628 311.405 177.628Z" fill="white"/>
<path d="M537.025 345.786C537.252 341.179 537.478 336.995 537.478 336.995C537.478 336.995 538.101 337.137 539.035 337.363C538.186 335.271 537.139 332.84 536.827 332.247C536.487 331.568 536.233 328.742 536.091 327.017C536.006 325.83 535.355 324.728 534.251 324.049C533.628 323.682 532.892 323.427 532.1 323.654C528.703 324.586 528.787 325.236 527.004 326.226C526.24 326.65 525.051 327.13 523.692 327.639C522.758 327.696 522.39 327.724 521.229 327.781C521.229 327.781 504.216 329.42 503.196 328.544C502.177 327.667 510.557 302.538 508.066 294.228L505.093 278.992L474.944 283.571C474.944 283.571 480.833 299.486 481.116 304.8C481.342 308.87 481.342 341.575 490.118 344.26C493.911 345.419 509.113 341.688 516.19 339.822C517.323 339.511 518.257 339.285 518.879 339.115C522.56 338.183 528.787 337.25 529.014 337.306C530.543 337.73 532.354 341.264 532.722 341.575C532.722 341.546 535.185 344.034 537.025 345.786Z" fill="#F7A491"/>
<path d="M490.656 303.895L485.957 285.267L466.084 283.374C466.084 283.374 447.938 310.51 445.9 314.919C444.683 317.548 454.364 339.596 458.384 348.5C459.403 350.79 460.082 352.203 460.082 352.203H460.111C461.724 355.849 463.508 361.22 463.508 361.446C463.508 363.029 460.677 366.336 460.451 366.619C460.366 367.495 459.743 373.064 459.601 373.375C459.545 373.516 459.262 374.421 458.95 375.353L463.281 372.781C464.442 372.103 469.424 368.23 470.217 367.495C470.783 366.986 473.444 365.997 475.086 365.432C476.218 365.036 477.124 364.132 477.464 362.888C477.662 362.181 477.69 361.418 477.294 360.711C475.511 357.687 474.803 357.517 473.416 356.047C472.821 355.425 463.848 322.325 464.753 321.364C465.744 320.205 490.656 303.895 490.656 303.895Z" fill="#E6898F"/>
<path d="M467.471 223.081C465.914 217.484 464.385 211.859 467.33 205.471C469.707 200.298 474.152 197.16 479.446 196.227C494.421 193.599 491.986 207.845 513.218 209.711C519.814 210.304 525.957 210.87 531.59 213.809C541.781 219.123 546.028 228.338 540.338 244.055C526.381 282.497 486.24 251.969 480.012 245.666C473.841 239.391 468.49 226.671 467.471 223.081Z" fill="#13375B"/>
<path d="M499.403 237.186L512.991 242.443L527.599 254.146L501.073 256.435C501.073 256.435 495.27 249.001 495.695 248.521C496.148 247.984 499.403 237.186 499.403 237.186Z" fill="#F7A491"/>
<path d="M456.77 211.435C454.279 207.817 449.835 195.945 448.334 191.903C448.448 191.535 449.014 189.472 447.881 186.051C447.089 183.649 447.598 179.098 446.098 179.833C444.626 180.568 445.787 184.808 444.626 184.355C443.465 183.903 440.436 175.169 439.077 175.847C437.719 176.526 441.144 184.582 440.125 184.158C439.106 183.762 436.784 176.073 434.888 177.006C432.991 177.939 438.455 185.797 437.435 186.306C436.416 186.815 433.104 181.783 431.576 182.518C430.047 183.281 436.416 189.189 435.822 188.935C435.227 188.68 430.924 186.786 430.528 187.606C430.104 188.539 440.521 194.56 441.201 196.764C442.191 202.531 443.862 213.046 447.513 218.869C452.014 225.992 467.839 250.471 467.839 250.471L473.982 235.207C474.01 235.235 459.714 215.731 456.77 211.435Z" fill="#F7A491"/>
<path d="M443.805 186.391C443.295 186.843 442.927 187.38 442.616 187.974C442.588 188.087 441.512 189.952 442.588 192.129C442.446 190.659 442.276 189.019 443.805 186.391Z" fill="#E6898F"/>
<path d="M531.732 226.671C531.732 226.671 530.684 224.918 531.081 221.413C531.335 219.152 530.118 215.251 531.505 215.647C532.892 216.042 532.638 219.971 533.515 219.378C534.393 218.784 535.468 210.587 536.714 210.954C537.96 211.322 536.459 218.982 537.28 218.445C538.073 217.908 538.696 210.785 540.451 211.294C542.206 211.802 538.979 219.604 539.913 219.887C540.847 220.169 542.772 215.166 544.187 215.59C545.603 215.986 541.272 222.261 541.725 221.95C542.206 221.639 545.461 219.237 545.943 219.887C546.452 220.622 539.771 226.105 539.602 228.141C539.403 230.176 533.062 252.365 529.297 253.863C525.56 255.361 504.102 250.726 501.413 247.503C498.724 244.281 497.195 238.684 499.432 237.186C499.432 237.186 523.409 241.765 524.088 241.313C524.796 240.832 531.732 226.671 531.732 226.671Z" fill="#F7A491"/>
<path d="M533.713 220.763C534.279 221.13 534.732 221.611 535.129 222.148C535.157 222.261 536.516 223.929 535.808 226.247C535.695 224.749 535.61 223.109 533.713 220.763Z" fill="#E6898F"/>
<path d="M487.061 261.156L466.056 262.117C465.206 275.374 466.537 290.045 466.537 290.045C479.615 292.108 508.349 295.613 508.349 295.613C508.349 295.613 503.848 273.113 501.951 262.032L487.061 261.156Z" fill="#F7A491"/>
<path d="M466.056 262.117C468.745 263.361 482.163 268.986 502.857 267.29C501.866 261.976 501.158 257.679 501.073 256.407C496.233 247.701 499.403 237.186 499.403 237.186C498.158 236.875 497.054 236.649 496.204 236.507C494.647 236.281 483.89 236.168 483.89 236.168C483.89 236.168 476.36 235.744 473.614 234.896C467.641 248.464 467.867 250.471 467.867 250.471C466.961 254.202 466.395 258.16 466.056 262.117Z" fill="#E6898F"/>
<path d="M479.361 229.3C479.361 229.3 480.068 237.525 479.332 238.345C478.596 239.165 477.577 240.493 478.851 242.415C480.097 244.309 484.966 242.783 487.202 241.539C489.354 240.352 490.656 238.26 490.656 238.26L488.788 225.286L479.361 229.3Z" fill="#F7A491"/>
<path d="M482.843 232.522C484.399 231.872 487.117 230.656 489.07 227.066L488.816 225.257L479.389 229.299C479.389 229.299 479.559 231.306 479.644 233.426C480.974 233.313 482.107 232.833 482.843 232.522Z" fill="#E6898F"/>
<path d="M466.084 283.345L449.042 306.044C449.042 306.044 465.744 317.605 469.198 319.075L483.38 309.492L481.937 283.317L466.084 283.345Z" fill="#907764"/>
<path d="M473.331 282.949L480.521 318.424L506.48 318.537C506.48 318.537 512.284 295.726 505.348 282.158L473.331 282.949Z" fill="#907764"/>
<path d="M479.757 200.58C479.757 200.58 475.086 200.722 472.906 204.481C470.726 208.241 468.717 218.699 473.048 225.625C477.379 232.55 482.305 230.515 484.315 229.667C486.353 228.819 490.344 227.01 492.043 220.226C493.741 213.442 491.42 198.517 479.757 200.58Z" fill="#F7A491"/>
<path d="M478.681 200.326C478.681 200.326 485.787 211.491 490.458 211.774C495.129 212.057 496.063 218.134 496.063 218.134C496.063 218.134 493.628 204.114 488.872 201.655C484.173 199.167 478.681 200.326 478.681 200.326Z" fill="#13375B"/>
<path d="M489.976 215.873C489.976 215.873 489.948 211.011 492.977 211.802C496.006 212.565 494.138 220 491.646 219.915C489.184 219.773 489.976 215.873 489.976 215.873Z" fill="#F7A491"/>
<path d="M477.436 222.487L484.032 220.396C484.032 220.396 484.683 222.94 481.795 223.957C478.285 225.173 477.436 222.487 477.436 222.487Z" fill="white"/>
<path d="M473.416 355.991C473.416 355.991 462.743 365.319 460.818 366.138C459.261 366.817 455.242 376.852 457.223 377.7C459.205 378.548 477.407 365.262 478.228 362.831C479.077 360.4 473.416 355.991 473.416 355.991Z" fill="#3E332B"/>
<path d="M527.032 326.028C527.032 326.028 532.439 339.115 532.609 341.207C532.751 342.903 540.96 349.913 542.404 348.302C543.848 346.691 537.11 325.236 535.072 323.654C533.034 322.099 527.032 326.028 527.032 326.028Z" fill="#3E332B"/>
<path d="M467.867 250.5C467.867 250.5 462.63 269.156 464.669 283.798C464.669 283.798 488.533 292.023 505.914 283.402C505.914 283.402 503.989 271.247 502.121 263.276C500.252 255.305 484.909 261.778 484.909 261.778L467.867 250.5Z" fill="#E6898F"/>
<path d="M473.642 234.896L464.867 221.356C464.867 221.356 455.496 229.667 454.93 232.352C454.93 232.352 464.64 249.369 468.037 252.676C471.462 256.04 473.642 234.896 473.642 234.896Z" fill="#E6898F"/>
<path d="M499.403 237.186L514.746 238.74C514.746 238.74 517.322 252.506 515.058 256.124L499.205 258.273L495.242 242.359L499.403 237.186Z" fill="#E6898F"/>
<path d="M628.293 232.72L634.888 230.628C634.888 230.628 635.54 233.172 632.652 234.19C629.17 235.405 628.293 232.72 628.293 232.72Z" fill="white"/>
<path d="M188.291 240.663L195.198 240.465C195.198 240.465 195.113 243.094 192.084 243.263C188.376 243.489 188.291 240.663 188.291 240.663Z" fill="white"/>
</svg>
