<svg width="238" height="247" viewBox="0 0 238 247" fill="none" xmlns="http://www.w3.org/2000/svg">
<path d="M107.866 53.4484C102.48 54.7574 112.394 62.9548 115.205 55.6802C116.278 52.6973 113.059 50.1437 110.527 49.5643C108.338 49.0708 104.883 51.1094 107.286 53.3626L107.866 53.4484Z" fill="#562911"/>
<path d="M115.182 55.2952C109.796 56.6042 119.71 64.8015 122.521 57.5269C123.573 54.5441 120.375 52.0119 117.822 51.4325C115.633 50.9604 112.178 52.999 114.581 55.2308L115.182 55.2952Z" fill="#552A14"/>
<path d="M122.758 56.8606C117.372 58.1696 127.286 66.367 130.097 59.0923C131.149 56.1095 127.951 53.5774 125.398 52.998C123.209 52.5259 119.754 54.5645 122.158 56.7962L122.758 56.8606Z" fill="#552A14"/>
<path d="M127.694 57.8694C122.308 59.1784 132.222 67.3757 135.033 60.1011C136.084 57.1183 132.887 54.5861 130.355 54.0068C128.166 53.5347 124.711 55.5733 127.115 57.805L127.694 57.8694Z" fill="#552A14"/>
<path d="M133.681 60.2088C134.797 63.1916 137.458 65.9813 139.583 68.213C145.655 74.243 144.518 66.6894 141.128 62.9126C142.544 63.0629 150.076 61.947 149.926 59.8655C149.861 57.9985 144.196 57.9771 142.887 58.0629C145.763 56.1745 152.952 51.99 145.205 52.1187C140.956 52.226 136.407 55.1659 133.402 57.9341C133.617 57.8269 133.746 57.505 134.175 57.2904L133.681 60.2088Z" fill="#552A14"/>
<path d="M132.221 49.8226C128.895 51.9685 130.59 56.3033 132.822 59.1573C132.285 59.5436 132.07 60.2303 132.349 60.8311C132.457 61.0886 132.671 61.2818 132.907 61.4105C131.663 62.7624 130.01 64.2646 129.109 65.7023C127.886 68.0414 128.422 71.3675 132.564 69.9512C137.371 68.5135 136.47 64.0071 134.624 61.1745H134.774C134.753 61.153 134.71 61.1101 134.667 61.0886C135.032 60.7024 135.139 60.123 134.925 59.6294C134.839 59.4578 134.731 59.329 134.603 59.2217C135.225 57.5694 136.126 55.6595 136.427 53.9642C136.706 51.2175 135.225 47.6767 132.221 49.8226Z" fill="#EE6B89"/>
<path opacity="0.15" d="M236.792 228.533C246.234 242.717 184.131 246.623 119.153 246.623C54.1752 246.623 -9.55812 242.052 1.51474 228.533C16.2571 210.529 54.1752 210.443 119.153 210.443C184.131 210.443 223.423 208.468 236.792 228.533Z" fill="#C1B49A"/>
<path d="M43.3169 237.48C43.2311 237.48 43.1452 237.48 43.0594 237.458C41.7075 237.308 40.7204 236.106 40.8706 234.754L48.2525 166.042C48.4027 164.691 49.6044 163.703 50.9563 163.854C52.3083 164.004 53.2954 165.206 53.1451 166.557L45.7632 235.269C45.6345 236.535 44.5615 237.48 43.3169 237.48Z" fill="#E6E6E6"/>
<path d="M52.8448 227.096C52.7804 227.096 52.6945 227.096 52.6302 227.096C51.2782 226.989 50.2697 225.787 50.377 224.435L55.5057 163.749C55.613 162.397 56.8147 161.388 58.1666 161.496C59.5185 161.603 60.5271 162.805 60.4198 164.157L55.2911 224.843C55.1838 226.109 54.1108 227.096 52.8448 227.096Z" fill="#CCCCCC"/>
<path d="M206.664 237.48C205.419 237.48 204.346 236.535 204.217 235.291L196.835 166.557C196.685 165.206 197.672 163.982 199.024 163.854C200.376 163.703 201.599 164.691 201.728 166.042L209.11 234.754C209.26 236.106 208.273 237.329 206.921 237.458C206.835 237.458 206.75 237.48 206.664 237.48Z" fill="#E6E6E6"/>
<path d="M197.136 227.094C195.869 227.094 194.797 226.128 194.689 224.841L189.539 164.133C189.432 162.781 190.44 161.58 191.792 161.472C193.144 161.365 194.346 162.374 194.453 163.726L199.582 224.412C199.689 225.764 198.681 226.965 197.329 227.073C197.264 227.094 197.2 227.094 197.136 227.094Z" fill="#CCCCCC"/>
<path d="M87.8236 212.716C89.0039 212.716 89.9695 212.523 89.9695 211.106V169.798C89.9695 168.961 90.4416 168.295 91.021 168.295H115.356C115.935 168.295 116.407 168.961 116.407 169.798V211.128C116.407 212.544 117.373 212.737 118.553 212.737C119.733 212.737 120.699 212.544 120.699 211.128V169.798C120.699 166.128 118.295 163.145 115.334 163.145H91.021C88.0597 163.145 85.6562 166.128 85.6562 169.798V211.128C85.6562 212.544 86.6219 212.716 87.8236 212.716Z" fill="#E6E6E6"/>
<path d="M96.6635 217.887C97.8437 217.887 98.8094 217.694 98.8094 216.278V169.797C98.8094 168.961 99.2815 168.295 99.8609 168.295H124.195C124.775 168.295 125.247 168.961 125.247 169.797V216.278C125.247 217.694 126.213 217.887 127.393 217.887C128.573 217.887 129.539 217.694 129.539 216.278V169.797C129.539 166.128 127.135 163.145 124.174 163.145H99.8609C96.8995 163.145 94.4961 166.128 94.4961 169.797V216.278C94.4961 217.694 95.4618 217.887 96.6635 217.887Z" fill="#CCCCCC"/>
<path d="M131.686 167.414C131.686 169.023 130.592 170.311 129.24 170.311H85.1846C83.8327 170.311 82.7383 169.002 82.7383 167.414V162.328C82.7383 160.719 83.8327 159.431 85.1846 159.431H129.24C130.592 159.431 131.686 160.74 131.686 162.328V167.414Z" fill="#A0653F"/>
<path d="M82.0521 206.321C84.2624 200.527 85.9792 194.991 87.3096 189.776C88.2538 191.729 89.8418 193.424 91.6443 194.518C93.5113 194.797 95.3568 194.754 96.8589 193.703C95.4855 198.832 93.7688 204.282 91.6014 209.969C90.8933 211.857 89.1765 213.059 87.3096 213.231C86.5585 213.295 85.7646 213.209 85.0135 212.909C82.374 211.922 81.0436 208.96 82.0521 206.321Z" fill="white"/>
<path d="M91.4736 162.545C91.1517 169.369 90.1002 178.789 87.3105 189.798C88.2547 191.75 89.8427 193.446 91.6453 194.54C93.5122 194.819 95.3577 194.776 96.8598 193.725C100.207 181.085 101.409 170.313 101.731 162.545H91.4736Z" fill="#CF8755"/>
<path d="M105.829 229.132C101.044 232.802 94.6708 233.402 89.2846 230.699C82.0529 227.437 80.0786 219.476 78.8555 211.643C79.1559 208.939 80.6151 205.055 82.9971 203.167C82.9327 205.291 84.2202 207.544 85.894 208.553C88.7266 209.905 91.7953 208.961 93.233 206.257C94.9712 209.347 96.924 212.351 99.3703 214.926C101.817 217.501 105.443 220.291 106.795 223.639C107.396 225.141 107.589 226.471 107.46 227.608C107.096 228.188 106.559 228.681 105.829 229.132Z" fill="#C49A6C"/>
<path d="M78.877 211.643C80.1002 219.454 82.0529 227.416 89.3061 230.699C94.6923 233.403 101.066 232.802 105.851 229.132C106.581 228.682 107.117 228.188 107.503 227.63C107.01 231.965 101.945 233.875 97.246 234.325C91.2803 234.905 85.5722 233.66 82.525 227.974C80.2718 223.768 78.6624 217.158 78.8555 212.351C78.8341 212.137 78.8555 211.901 78.877 211.643Z" fill="#A0653F"/>
<path d="M101.817 217.265C99.5633 216.493 97.1385 216.343 94.8638 217.051C92.911 217.673 92.0098 219.411 90.293 220.291C90.0141 220.42 89.6922 220.184 89.6707 219.905C89.4347 217.308 92.5892 215.634 94.7136 215.055C97.396 214.304 100.078 215.141 101.838 217.222C101.881 217.244 101.838 217.265 101.817 217.265Z" fill="white"/>
<path d="M98.8336 214.283C97.1383 214.025 95.5074 213.596 93.7692 213.768C91.4731 214.004 90.3572 215.441 88.5332 216.514C88.1899 216.729 87.8036 216.471 87.8251 216.064C88.147 211.858 97.031 210.549 98.9623 214.046C99.0052 214.175 98.9409 214.304 98.8336 214.283Z" fill="white"/>
<path d="M96.7537 211.642C95.037 211.599 93.6422 211.106 91.8825 211.556C90.037 212.05 88.7924 213.359 87.1401 214.174C86.9898 214.239 86.8182 214.11 86.7967 213.96C86.4748 210.183 96.4104 207.608 96.8825 211.492C96.9039 211.556 96.8395 211.642 96.7537 211.642Z" fill="white"/>
<path d="M132.848 206.321C130.637 200.527 128.921 194.991 127.59 189.776C126.646 191.729 125.058 193.424 123.256 194.518C121.389 194.797 119.543 194.754 118.041 193.703C119.414 198.832 121.131 204.282 123.298 209.969C124.007 211.857 125.723 213.059 127.59 213.231C128.341 213.295 129.135 213.209 129.886 212.909C132.526 211.922 133.856 208.96 132.848 206.321Z" fill="white"/>
<path d="M113.148 162.545C113.492 170.291 114.672 181.085 118.02 193.725C119.522 194.776 121.367 194.84 123.234 194.54C125.037 193.446 126.625 191.729 127.569 189.798C124.779 178.811 123.728 169.39 123.406 162.545H113.148Z" fill="#CF8755"/>
<path d="M109.071 229.132C113.857 232.802 120.23 233.402 125.616 230.699C132.848 227.437 134.822 219.476 136.045 211.643C135.745 208.939 134.286 205.055 131.904 203.167C131.968 205.291 130.68 207.544 129.007 208.553C126.174 209.905 123.105 208.961 121.668 206.257C119.929 209.347 117.977 212.351 115.53 214.926C113.084 217.501 109.457 220.291 108.106 223.639C107.505 225.141 107.312 226.471 107.44 227.608C107.805 228.188 108.342 228.681 109.071 229.132Z" fill="#C49A6C"/>
<path d="M136.023 211.643C134.8 219.454 132.847 227.416 125.594 230.699C120.208 233.403 113.834 232.802 109.049 229.132C108.319 228.682 107.783 228.188 107.396 227.63C107.89 231.965 112.954 233.875 117.654 234.325C123.62 234.905 129.328 233.66 132.375 227.974C134.628 223.768 136.237 217.158 136.044 212.351C136.066 212.137 136.044 211.901 136.023 211.643Z" fill="#A0653F"/>
<path d="M113.083 217.265C115.336 216.493 117.761 216.343 120.036 217.051C121.988 217.673 122.89 219.411 124.606 220.291C124.885 220.42 125.207 220.184 125.229 219.905C125.465 217.308 122.31 215.634 120.186 215.055C117.503 214.304 114.821 215.141 113.061 217.222C113.018 217.244 113.061 217.265 113.083 217.265Z" fill="white"/>
<path d="M116.066 214.283C117.761 214.025 119.392 213.596 121.13 213.768C123.426 214.004 124.542 215.441 126.366 216.514C126.71 216.729 127.096 216.471 127.075 216.064C126.753 211.858 117.869 210.549 115.937 214.046C115.894 214.175 115.959 214.304 116.066 214.283Z" fill="white"/>
<path d="M118.149 211.642C119.865 211.599 121.26 211.106 123.02 211.556C124.865 212.05 126.11 213.359 127.762 214.174C127.912 214.239 128.084 214.11 128.106 213.96C128.427 210.183 118.492 207.608 118.02 211.492C117.998 211.556 118.063 211.642 118.149 211.642Z" fill="white"/>
<path d="M203.487 152.975H46.5352V170.529H203.487V152.975Z" fill="#9A6233"/>
<path d="M90.5696 140.421C90.5696 141.494 89.6898 142.374 88.6168 142.374C87.5439 142.374 86.6641 141.494 86.6641 140.421V120.572C86.6641 119.499 87.5439 118.619 88.6168 118.619C89.6898 118.619 90.5696 119.499 90.5696 120.572V140.421Z" fill="#999999"/>
<path d="M71.6008 117.547C71.7081 125.873 78.7895 132.525 87.4375 132.418L117.995 132.031C126.622 131.924 133.553 125.079 133.446 116.774L133.381 111.581C133.274 103.255 126.193 96.6026 117.545 96.7099L86.9869 97.0962C78.3389 97.2035 71.4291 104.049 71.5364 112.354L71.6008 117.547Z" fill="#A67E53"/>
<path d="M98.8528 96.6881C98.8951 96.6881 98.9162 96.7092 98.9162 96.7092C98.9162 96.7092 98.8951 96.7515 98.874 96.7938C98.8317 96.7515 98.8105 96.7304 98.8105 96.7304C98.8105 96.7304 98.8317 96.7092 98.8528 96.6881Z" fill="#0680C4"/>
<path d="M90.8901 93.5761C90.9115 93.5975 90.9328 93.6188 90.9756 93.6615C90.9115 93.6829 90.8474 93.7042 90.8047 93.747C90.8047 93.5975 90.826 93.5334 90.8901 93.5761Z" fill="#0680C4"/>
<path d="M96.9861 96.8806C96.9432 96.9021 96.9432 96.9235 96.9432 96.9235C96.9432 96.9235 96.9647 96.945 97.029 96.9879C96.8574 97.4171 95.9561 99.2411 93.8531 99.0909C91.8145 98.9407 90.7415 94.6489 90.7844 93.7476C90.8488 93.7261 90.8917 93.7047 90.9561 93.6617C93.4454 96.43 96.5355 96.8377 96.9861 96.8806Z" fill="#0680C4"/>
<path d="M89.97 137.653L124.991 136.215L115.463 102.696C114.197 97.9749 112.695 86.1938 109.476 86.0865C107.438 87.0522 103.983 89.9277 100.742 90.9792C101.215 91.5801 102.545 96.0006 100.807 97.1809C99.0686 98.3611 97.3948 97.2238 97.0085 96.9448C96.8369 97.374 95.9356 99.198 93.8326 99.0478C91.794 98.8976 90.721 94.6058 90.764 93.7045C84.2619 96.5371 80.7211 104.262 82.7812 111.923L89.97 137.653Z" fill="#EBF7FD"/>
<path d="M90.8919 121.838C92.9949 113.684 89.3039 105.293 85.1409 98.319C82.5014 101.988 81.4928 106.967 82.8233 111.924L89.9692 137.653L93.7245 137.503C92.158 132.46 90.7632 127.439 89.5185 122.396C90.0765 122.396 90.8919 121.838 90.8919 121.838Z" fill="#C7E1EF"/>
<path d="M96.987 96.8814C96.5364 96.8385 93.4248 96.4522 90.957 93.6625C91.4935 93.4479 92.0515 93.2548 92.6308 93.0831L99.1973 91.3235C99.6694 91.1947 100.12 91.1089 100.592 91.0231C99.8625 94.6926 97.3518 96.6024 96.987 96.8814Z" fill="#CF8755"/>
<path d="M100.592 90.9588C100.613 90.8947 100.677 90.916 100.72 91.0015C100.677 91.0015 100.613 91.0228 100.57 91.0228C100.592 91.0015 100.592 90.9801 100.592 90.9588Z" fill="#0680C4"/>
<path d="M100.806 97.2032C99.0679 98.3835 97.394 97.2462 97.0078 96.9672C97.0292 96.9243 97.0507 96.8814 97.0507 96.8814C97.0507 96.8814 97.0292 96.8814 96.9863 96.8814C97.3511 96.6238 99.8618 94.714 100.591 91.023C100.634 91.023 100.677 91.0016 100.742 91.0016C101.214 91.6024 102.544 96.023 100.806 97.2032Z" fill="#0680C4"/>
<path d="M99.7337 88.3829C99.047 85.8078 96.3861 84.2842 93.811 84.9709C91.2359 85.6576 89.7123 88.3185 90.399 90.8936L90.7424 92.2026C91.429 94.7777 94.09 96.3013 96.6651 95.6146C99.2401 94.9279 100.764 92.267 100.077 89.6919L99.7337 88.3829Z" fill="#CF8755"/>
<path d="M99.7532 88.5117L99.7103 88.3829C99.0236 85.8078 96.3626 84.2842 93.7876 84.9709C91.2125 85.6576 89.6889 88.3185 90.3756 90.8936L90.7189 92.2026C90.9764 93.1897 91.5344 94.0052 92.2425 94.6275C95.0966 93.0395 97.6073 90.9365 99.7532 88.5117Z" fill="#FBC395"/>
<g opacity="0.89">
<path opacity="0.89" d="M95.5918 87.8278C95.6341 87.87 95.6552 87.8912 95.6763 87.9334C95.6552 87.8912 95.6341 87.87 95.5918 87.8278Z" fill="#CF8755"/>
</g>
<g opacity="0.89">
<path opacity="0.89" d="M95.6776 88.0615C95.7203 88.0615 95.763 88.0829 95.8058 88.0829C95.763 88.0401 95.7203 87.9974 95.6562 87.9547C95.699 87.9761 95.699 88.0188 95.6776 88.0615Z" fill="#CF8755"/>
</g>
<path d="M151.535 26.172C151.986 22.1162 148.359 24.1763 146.729 25.8501C147.673 23.8973 151.686 20.0347 151.214 17.7171C150.591 13.7472 145.226 19.9274 144.368 21.2793C144.711 19.8845 150.033 12.2451 148.252 10.6142C145.677 8.06054 140.312 17.5454 139.068 19.0476C139.368 18.0605 139.819 17.0733 140.141 15.8716C141.664 11.9232 142.802 3.21079 137.544 10.2279C135.012 13.6399 133.639 21.1076 129.497 18.1677C127.845 16.9446 126.857 14.5841 124.626 15.3566C121.106 16.4081 124.325 18.3609 125.527 20.1849C128.467 24.6484 126.793 30.6569 128.982 32.6955C127.201 42.6096 121.514 67.6523 107.051 85.5062C109.604 87.0942 112.072 88.8109 114.433 90.6564C116.214 88.4247 117.909 86.0427 119.54 83.532C124.132 76.3861 128.124 68.06 131.385 58.7683C134.54 49.8413 136.407 41.7942 137.437 36.4079C140.334 36.4294 143.274 35.4637 145.656 33.7685C147.437 32.3093 151.407 28.8329 151.535 26.172Z" fill="#CF8755"/>
<path d="M126.813 81.6002L114.861 72.4586C114.861 72.4586 113.959 73.7032 112.672 75.5273L124.775 85.2267C126.041 83.1023 126.813 81.6002 126.813 81.6002Z" fill="#87D5F7"/>
<path d="M112.694 75.5289C109.969 79.413 105.527 85.958 104.411 88.855C102.78 93.1468 112.78 107.396 115.591 101.645C118.209 96.2798 121.9 90.0567 124.797 85.207L112.694 75.5289Z" fill="#EBF7FD"/>
<path d="M209.669 153.662H41.709L64.2195 137.332H182.373L209.669 153.662Z" fill="#F6DFA9"/>
<path d="M209.669 153.662H41.709V157.524H209.669V153.662Z" fill="#855433"/>
<path d="M102.609 137.458C102.609 137.458 106.129 136.128 106.815 135.355H159.926C159.926 135.355 161.171 136.664 163.939 137.737C165.291 138.231 102.609 137.458 102.609 137.458Z" fill="#66696A"/>
<path d="M108.983 136.9C108.983 137.48 108.919 137.608 108.575 137.608H106.687C106.344 137.608 106.279 137.48 106.279 136.9C106.279 136.299 106.344 136.192 106.687 136.192H108.575C108.919 136.192 108.983 136.299 108.983 136.9Z" fill="#8A8C8E"/>
<path d="M114.069 136.9C114.069 137.48 114.005 137.608 113.661 137.608H111.773C111.43 137.608 111.365 137.48 111.365 136.9C111.365 136.299 111.43 136.192 111.773 136.192H113.661C113.983 136.192 114.069 136.299 114.069 136.9Z" fill="#8A8C8E"/>
<path d="M117.202 136.9C117.202 137.48 117.138 137.608 116.794 137.608H114.906C114.562 137.608 114.498 137.48 114.498 136.9C114.498 136.299 114.562 136.192 114.906 136.192H116.794C117.138 136.192 117.202 136.299 117.202 136.9Z" fill="#8A8C8E"/>
<path d="M120.335 136.9C120.335 137.48 120.27 137.608 119.927 137.608H118.039C117.695 137.608 117.631 137.48 117.631 136.9C117.631 136.299 117.695 136.192 118.039 136.192H119.927C120.27 136.192 120.335 136.299 120.335 136.9Z" fill="#8A8C8E"/>
<path d="M123.468 136.9C123.468 137.48 123.403 137.608 123.06 137.608H121.171C120.828 137.608 120.764 137.48 120.764 136.9C120.764 136.299 120.828 136.192 121.171 136.192H123.06C123.403 136.192 123.468 136.299 123.468 136.9Z" fill="#8A8C8E"/>
<path d="M126.602 136.9C126.602 137.48 126.538 137.608 126.195 137.608H124.306C123.963 137.608 123.898 137.48 123.898 136.9C123.898 136.299 123.963 136.192 124.306 136.192H126.195C126.538 136.192 126.602 136.299 126.602 136.9Z" fill="#8A8C8E"/>
<path d="M131.13 136.9C131.13 137.48 131.065 137.608 130.722 137.608H128.833C128.49 137.608 128.426 137.48 128.426 136.9C128.426 136.299 128.49 136.192 128.833 136.192H130.722C131.065 136.192 131.13 136.299 131.13 136.9Z" fill="#8A8C8E"/>
<path d="M134.262 136.9C134.262 137.48 134.198 137.608 133.855 137.608H131.966C131.623 137.608 131.559 137.48 131.559 136.9C131.559 136.299 131.623 136.192 131.966 136.192H133.855C134.198 136.192 134.262 136.299 134.262 136.9Z" fill="#8A8C8E"/>
<path d="M137.395 136.9C137.395 137.48 137.331 137.608 136.988 137.608H135.099C134.756 137.608 134.691 137.48 134.691 136.9C134.691 136.299 134.756 136.192 135.099 136.192H136.988C137.331 136.192 137.395 136.299 137.395 136.9Z" fill="#8A8C8E"/>
<path d="M140.55 136.9C140.55 137.48 140.485 137.608 140.142 137.608H138.253C137.91 137.608 137.846 137.48 137.846 136.9C137.846 136.299 137.91 136.192 138.253 136.192H140.142C140.464 136.192 140.55 136.299 140.55 136.9Z" fill="#8A8C8E"/>
<path d="M143.682 136.9C143.682 137.48 143.618 137.608 143.275 137.608H141.386C141.043 137.608 140.979 137.48 140.979 136.9C140.979 136.299 141.043 136.192 141.386 136.192H143.275C143.618 136.192 143.682 136.299 143.682 136.9Z" fill="#8A8C8E"/>
<path d="M148.317 136.9C148.317 137.48 148.253 137.608 147.909 137.608H146.021C145.678 137.608 145.613 137.48 145.613 136.9C145.613 136.299 145.678 136.192 146.021 136.192H147.909C148.253 136.192 148.317 136.299 148.317 136.9Z" fill="#8A8C8E"/>
<path d="M151.45 136.9C151.45 137.48 151.386 137.608 151.042 137.608H149.154C148.81 137.608 148.746 137.48 148.746 136.9C148.746 136.299 148.81 136.192 149.154 136.192H151.042C151.386 136.192 151.45 136.299 151.45 136.9Z" fill="#8A8C8E"/>
<path d="M154.606 136.9C154.606 137.48 154.542 137.608 154.198 137.608H152.31C151.967 137.608 151.902 137.48 151.902 136.9C151.902 136.299 151.967 136.192 152.31 136.192H154.198C154.52 136.192 154.606 136.299 154.606 136.9Z" fill="#8A8C8E"/>
<path d="M157.739 136.9C157.739 137.48 157.675 137.608 157.331 137.608H155.443C155.1 137.608 155.035 137.48 155.035 136.9C155.035 136.299 155.1 136.192 155.443 136.192H157.331C157.675 136.192 157.739 136.299 157.739 136.9Z" fill="#8A8C8E"/>
<path d="M164.991 139.796C164.991 141.363 164.111 142.65 163.039 142.65H103.297C102.224 142.65 101.344 141.384 101.344 139.796C101.344 138.23 102.224 136.942 103.297 136.942H163.039C164.111 136.942 164.991 138.23 164.991 139.796Z" fill="#757779"/>
<path d="M163.853 141.364C163.853 141.857 162.136 142.244 161.772 142.244H104.197C103.832 142.244 102.309 141.857 102.309 141.364C102.309 140.87 102.609 140.484 102.974 140.484H163.209C163.574 140.484 163.853 140.87 163.853 141.364Z" fill="#534D53"/>
<path d="M95.9136 150.807L64.0898 150.636L64.0469 150.271L73.2957 141.172L99.862 140.979L99.8835 141.473L95.9136 150.807Z" fill="#967A82"/>
<path d="M88.23 135.573C82.994 135.68 81.3417 142.611 82.243 143.062C83.1228 143.513 83.552 144.929 83.7236 146.002C83.8953 147.075 84.6035 147.526 84.6035 147.526C84.6035 147.526 86.2987 147.676 88.4232 147.633C90.5047 147.676 92.1785 147.526 92.1785 147.526C92.1785 147.526 92.8867 147.075 93.0583 146.002C93.23 144.929 93.6377 143.513 94.5175 143.062C95.3974 142.611 93.7665 135.659 88.6163 135.573H88.23Z" fill="#534D53"/>
<path d="M88.2091 139.285C85.913 139.414 83.9817 141.28 83.3594 143.791C83.6813 144.371 83.8529 145.122 83.9602 145.723C84.1319 146.753 84.8186 147.203 84.8186 147.203C84.8186 147.203 86.2993 147.332 88.2091 147.31V139.285Z" fill="#616774"/>
<path d="M88.7031 139.306V147.31C90.5057 147.31 91.8791 147.203 91.8791 147.203C91.8791 147.203 92.5658 146.753 92.7374 145.723C92.8233 145.122 93.0164 144.392 93.3168 143.813C92.6945 141.388 90.8919 139.564 88.7031 139.306Z" fill="#616774"/>
<path d="M89.4099 142.568C89.4099 143.019 89.0022 143.362 88.4872 143.362C87.9722 143.362 87.5645 142.997 87.5645 142.568V139.199C87.5645 138.748 87.9722 138.405 88.4872 138.405C89.0022 138.405 89.4099 138.77 89.4099 139.199V142.568Z" fill="#8A8C8E"/>
<path d="M87.8432 140.034L84.3239 129.454C84.6244 126.428 86.8561 114.261 89.0235 103.489L80.1394 101.708C80.118 101.772 78.809 108.36 77.5643 115.055C74.839 129.647 75.0536 130.313 75.5043 131.622L79.6029 143.918C81.5128 141.729 84.8175 140.034 87.8432 140.034Z" fill="#CF8755"/>
<g opacity="0.89">
<path opacity="0.89" d="M85.118 124.112C86.0193 118.811 87.5429 110.829 89.0021 103.468L80.118 101.687C80.0966 101.752 78.7876 108.339 77.543 115.035C76.7704 119.198 76.2339 122.245 75.8691 124.477C78.6159 123.318 81.985 124.112 85.118 124.112Z" fill="#CF8755"/>
</g>
<path d="M88.9582 118.424C89.3659 114.518 89.9667 108.295 89.9238 106.621C89.838 104.111 90.0526 100.205 87.0912 96.4928C87.0912 96.4928 80.0527 97.673 77.0269 105.441C75.2673 109.991 74.0441 114.111 73.3789 116.578C78.4218 118.124 83.6792 118.553 88.9582 118.424Z" fill="#EBF7FD"/>
<path d="M73.3801 116.579C72.9724 118.102 72.7578 119.004 72.7578 119.004C72.7578 119.004 78.6376 121.3 88.6161 121.686C88.6161 121.686 88.7663 120.313 88.9594 118.403C83.6805 118.553 78.423 118.124 73.3801 116.579Z" fill="#87D5F7"/>
<path d="M87.9719 134.025C83.9805 133.359 78.8089 135.205 78.3583 140.291C78.0793 142.179 78.2081 145.849 79.8175 147.029C83.208 149.754 81.7273 144.346 81.0836 142.608C81.0406 142.351 80.869 141.986 80.6973 141.75C81.1909 143.252 82.8218 148.23 84.9677 146.964C86.7917 145.87 84.3453 141.814 83.723 140.205C84.1737 141.449 86.1694 145.72 87.7573 145.334C89.3453 144.947 88.2938 140.763 87.7144 139.411C90.6114 139.196 92.6071 145.441 94.0877 144.54C96.9633 142.737 93.0577 138.273 91.9633 136.728C94.4955 137.758 94.0234 134.947 92.2208 134.046C91.1049 133.445 89.1093 133.037 87.9719 134.025Z" fill="#CF8755"/>
<path d="M59.5189 79.0471C61.8579 74.0042 67.9737 85.3346 60.2914 86.6865C57.1584 87.1586 55.2914 83.5106 55.2056 80.9141C55.1627 78.6609 57.8236 75.6781 59.5403 78.4677L59.5189 79.0471Z" fill="#562911"/>
<path d="M59.9055 86.5785C62.2446 81.5571 68.3604 92.866 60.6566 94.2179C57.5236 94.6686 55.6567 91.042 55.5708 88.424C55.5279 86.1923 58.1888 83.188 59.927 85.9991L59.9055 86.5785Z" fill="#552A14"/>
<path d="M59.9895 94.3265C62.3286 89.3051 68.4444 100.614 60.7406 101.966C57.6076 102.417 55.7406 98.79 55.6548 96.172C55.6119 93.9402 58.2728 90.936 59.9895 93.7256V94.3265Z" fill="#552A14"/>
<path d="M60.011 99.3695C62.3501 94.3481 68.4659 105.657 60.7621 106.987C57.6291 107.46 55.7621 103.811 55.6763 101.215C55.6334 98.9617 58.2943 95.9789 60.0325 98.7901L60.011 99.3695Z" fill="#552A14"/>
<path d="M61.1482 105.7C63.852 107.374 66.0623 110.528 67.8434 113.039C72.5858 120.163 65.3971 117.588 62.3499 113.533C62.2211 114.949 59.646 122.116 57.6503 121.558C55.8478 121.129 56.9207 115.571 57.2426 114.305C54.8177 116.773 49.3242 122.996 50.9766 115.442C51.9208 111.301 55.6761 107.417 58.9808 104.992C58.8306 105.185 58.4872 105.228 58.2083 105.636L61.1482 105.7Z" fill="#552A14"/>
<path d="M51.2351 102.244C53.9818 99.3895 57.9088 101.9 60.2693 104.647C60.7414 104.196 61.471 104.11 62.0075 104.497C62.2436 104.668 62.3938 104.883 62.4581 105.14C64.0247 104.175 65.8272 102.866 67.3937 102.244C69.9259 101.492 73.0804 102.673 70.8916 106.471C68.5525 110.913 64.3036 109.132 61.8788 106.771L61.8573 106.922C61.8358 106.879 61.8144 106.857 61.7929 106.814C61.3423 107.093 60.7414 107.093 60.3122 106.771C60.162 106.664 60.0547 106.535 59.9689 106.385C58.2093 106.664 56.1706 107.201 54.4539 107.158C51.7501 106.922 48.5527 104.776 51.2351 102.244Z" fill="#EE6B89"/>
<path d="M107.435 24.135C107.65 24.8432 111.47 45.0361 113.809 49.4781C116.148 53.9202 98.9161 31.3023 97.9504 26.1951C96.9633 21.0878 107.435 24.135 107.435 24.135Z" fill="#562911"/>
<path d="M52.4589 81.4532C52.4589 81.4532 41.5148 78.5347 41.1285 84.3072C40.7422 90.0797 47.7808 94.6505 54.476 93.6848C61.1712 92.7192 61.1498 87.333 61.1498 87.333L52.4589 81.4532Z" fill="#CF8755"/>
<path d="M111.191 45.2727C111.191 45.2727 108.616 39.1139 113.036 38.2985C116.448 37.6762 124.345 49.5859 118.315 57.2683L111.191 45.2727Z" fill="#CF8755"/>
<path opacity="0.89" d="M116.921 50.0566C117.414 47.2669 117.543 43.812 114.624 42.8034C113.766 42.4386 113.165 43.1468 112.994 43.9622C112.479 42.5674 112.886 41.1296 113.315 39.6918C113.53 39.0481 113.959 38.6833 114.474 38.576C113.959 38.297 113.466 38.1897 113.058 38.2756C108.637 39.0695 111.212 45.2497 111.212 45.2497L117.307 55.5072C117.586 55.4213 117.886 55.3355 118.165 55.2711C117.006 53.6617 116.749 51.8162 116.921 50.0566Z" fill="#CF8755"/>
<path d="M45.8912 79.8855C53.0156 88.2975 74.5604 107.224 105.376 85.2503C127.586 69.392 115.504 48.8987 114.753 48.1047C114.002 47.3107 110.762 43.5983 108.38 38.7056C105.762 33.3194 103.809 25.68 103.595 24.9718C103.595 24.9718 94.0667 0.315376 52.801 22.0963C9.2391 45.0789 45.8912 79.8855 45.8912 79.8855Z" fill="#CF8755"/>
<path opacity="0.89" d="M106.728 34.8215C104.968 30.2293 103.745 25.5083 103.595 24.9718C103.595 24.9718 94.0672 0.315376 52.8015 22.0963C9.21818 45.1004 45.8702 79.8855 45.8702 79.8855C47.9732 82.3533 51.9217 85.0786 56.1491 87.8468C58.3379 88.4477 59.6684 89.4777 61.986 89.349C54.9474 82.3104 55.1835 71.9671 53.1663 62.7397C53.7886 63.7269 53.853 64.8642 54.1105 65.9371C55.1835 63.9629 55.8272 61.9028 56.5354 60.0144C56.3852 61.0016 57.0075 61.9887 56.6856 63.0187C61.3207 58.2763 67.7585 55.551 74.0245 53.6626C74.4751 50.7012 74.8829 47.5467 75.1404 44.6283C75.8271 46.7527 77.694 48.963 76.7283 51.2806C86.0201 44.7141 95.6981 38.0618 106.728 34.8215Z" fill="#CF8755"/>
<path opacity="0.89" d="M91.041 66.1306C90.4831 67.0318 89.7106 67.7829 89.3887 68.8129C91.0625 68.5769 92.908 67.6756 93.1655 65.9803C92.2857 66.0447 91.32 65.6585 91.041 66.1306Z" fill="#CF8755"/>
<path d="M87.9727 77.695C89.6679 80.1414 93.2301 84.1328 97.2859 81.7293C100.912 79.6049 102.801 76.7938 103.745 74.1328C98.8309 72.8238 92.4576 74.6264 87.9727 77.695Z" fill="#F2808E"/>
<path d="M86.75 75.2497C86.75 75.2497 87.2865 76.7089 87.9732 77.6746C92.4796 74.606 98.8529 72.8249 103.746 74.1124C105.291 69.7348 103.424 65.4644 102.651 65.7863C92.3723 74.8635 86.75 75.2497 86.75 75.2497Z" fill="#C52A47"/>
<path d="M71.2772 64.8854C72.1356 64.9927 72.8867 65.7437 73.1227 66.5163C73.3802 67.3532 73.1871 68.6836 72.2214 69.1772C72.0712 69.263 71.8566 69.1986 71.7923 69.0484C71.5347 68.4476 71.7279 67.6751 71.6635 67.0313C71.6206 66.3017 71.2558 65.6579 71.1914 64.9283C71.2343 64.9068 71.2558 64.8854 71.2772 64.8854Z" fill="#562911"/>
<path d="M67.6734 75.4219C69.0039 78.2545 72.2012 79.4562 74.7978 78.1043C77.3943 76.7524 78.4244 73.3404 77.0939 70.5078C75.7634 67.6752 72.566 66.4735 69.9695 67.8254C67.373 69.1773 66.3429 72.5893 67.6734 75.4219Z" fill="white"/>
<path d="M74.3669 76.2586C72.6072 77.117 70.3755 76.2586 69.4098 74.3702C68.4442 72.4604 69.0879 70.2286 70.8476 69.3703C72.6072 68.5119 74.8175 69.3703 75.7832 71.2586C76.7703 73.1685 76.1265 75.4002 74.3669 76.2586Z" fill="#883E28"/>
<path d="M73.5941 74.6265C72.5426 75.1415 71.2336 74.6265 70.6542 73.5106C70.0748 72.3733 70.4611 71.0643 71.5126 70.5493C72.5641 70.0557 73.8731 70.5492 74.4525 71.6651C75.0319 72.781 74.6456 74.1115 73.5941 74.6265Z" fill="#4D1700"/>
<path d="M70.891 73.5544C70.4619 73.8333 69.8825 73.6188 69.6035 73.0823C69.3245 72.5458 69.4318 71.902 69.861 71.6231C70.2902 71.3441 70.8696 71.5587 71.1486 72.0952C71.4275 72.6316 71.3202 73.2969 70.891 73.5544Z" fill="white"/>
<path opacity="0.7" d="M73.5736 72.8902C74.5393 72.4395 75.4191 72.5468 76.2346 72.8473C76.3419 74.285 75.6552 75.6369 74.3462 76.2592C74.3032 76.2807 74.2818 76.2807 74.2389 76.3022C73.8097 75.5726 73.123 74.9073 72.7153 74.3279C72.4149 73.8987 72.887 73.1691 73.5736 72.8902Z" fill="#883E28"/>
<path d="M101.986 46.7096C102.845 46.8169 103.596 47.568 103.832 48.3405C104.089 49.1774 103.918 50.5078 102.93 51.0014C102.78 51.0872 102.566 51.0229 102.501 50.8726C102.244 50.2718 102.437 49.4993 102.372 48.8555C102.33 48.1259 101.965 47.4821 101.9 46.7525C101.922 46.7311 101.965 46.7096 101.986 46.7096Z" fill="#562911"/>
<path d="M98.3805 57.247C99.711 60.0796 102.908 61.2813 105.505 59.9079C108.101 58.556 109.131 55.144 107.801 52.3114C106.471 49.4788 103.273 48.2771 100.677 49.629C98.0586 51.0024 97.0501 54.4144 98.3805 57.247Z" fill="white"/>
<path d="M104.582 58.6628C102.822 59.5211 100.59 58.6628 99.6247 56.7744C98.659 54.8645 99.3028 52.6328 101.062 51.7744C102.822 50.9161 105.032 51.7744 105.998 53.6628C106.985 55.5512 106.341 57.783 104.582 58.6628Z" fill="#883E28"/>
<path d="M103.873 57.183C102.822 57.698 101.513 57.183 100.934 56.0671C100.354 54.9298 100.74 53.6208 101.792 53.1058C102.843 52.6122 104.152 53.1058 104.732 54.2216C105.29 55.3375 104.903 56.668 103.873 57.183Z" fill="#4D1700"/>
<path d="M101.106 55.9586C100.677 56.2375 100.097 56.0229 99.8184 55.4864C99.5394 54.95 99.6467 54.3062 100.076 54.0272C100.505 53.7483 101.084 53.9629 101.363 54.4993C101.642 55.0358 101.535 55.6796 101.106 55.9586Z" fill="white"/>
<path opacity="0.7" d="M103.788 55.2719C104.754 54.8212 105.634 54.9285 106.449 55.229C106.557 56.6667 105.87 58.0186 104.561 58.641C104.518 58.6624 104.497 58.6624 104.454 58.6839C104.025 57.9543 103.338 57.289 102.93 56.7096C102.63 56.3019 103.102 55.5509 103.788 55.2719Z" fill="#883E28"/>
<path d="M107.243 42.2264C106.106 39.8874 104.131 38.3638 101.449 38.3209C99.1529 38.2779 96.1701 39.7586 95.3976 42.0547C95.3332 42.2264 95.5693 42.3981 95.7195 42.2908C96.5993 41.6685 97.286 40.8101 98.1873 40.1878C99.11 39.544 100.119 39.0934 101.256 38.9646C103.724 38.7071 105.848 40.4024 107.2 42.2693C107.222 42.2908 107.264 42.2693 107.243 42.2264Z" fill="#562911"/>
<path d="M60.42 69.6065C58.9178 65.2718 61.6002 61.3233 65.4843 59.4135C65.6345 59.3277 65.5916 59.0487 65.3985 59.0701C60.0981 59.3706 58.0809 65.4435 60.2697 69.6495C60.3127 69.7138 60.4414 69.6709 60.42 69.6065Z" fill="#562911"/>
<path d="M87.114 2.07516C59.0027 -4.38402 25.2905 12.0751 23.7455 41.71C23.7455 41.71 16.4708 54.1133 26.5137 70.2505C35.2904 84.3491 41.535 86.3663 41.535 86.3663C41.535 86.3663 40.1831 82.2891 45.8912 80.5938L57.1572 87.5895C57.1572 87.5895 53.1229 78.3191 51.7066 68.9201C51.0199 64.4566 49.6465 61.2807 48.2946 59.0704C50.977 61.4309 52.522 63.5553 52.522 63.5553C52.2002 55.7228 48.1015 52.7829 46.6637 51.9889L46.7496 51.8601C51.1272 53.1048 55.0971 61.1734 55.0971 61.1734C56.0628 52.0533 49.904 48.7057 49.904 48.7057C59.1958 51.6885 58.8525 59.4137 58.8525 59.4137L74.1098 50.0361C74.6249 39.5212 67.5219 35.7015 67.5219 35.7015C79.1313 40.8302 77.8866 47.2035 77.8866 47.2035L96.2556 35.9804C99.6461 26.002 93.7663 21.7531 93.7663 21.7531C93.7663 21.7531 99.8178 24.4784 98.5517 33.2122L109.195 31.6886C109.195 31.6886 109.174 31.3238 109.088 30.6801C109.861 31.4526 110.29 31.9032 110.29 31.9032C110.29 31.9032 114.474 8.38412 87.114 2.07516Z" fill="#552A14"/>
<path opacity="0.26" d="M31.6851 47.2039C39.6464 42.7834 46.3631 37.1611 49.9682 28.0839C49.9253 27.9122 50.376 27.4187 50.7408 27.3328C57.5218 26.8178 64.1527 28.0625 70.4616 25.5732C79.9036 21.6247 91.5773 14.4789 93.2297 3.94248C91.3842 3.21287 89.3671 2.59056 87.1353 2.07554C81.9851 0.895297 76.6633 0.487575 71.3844 0.766543C68.7449 14.2857 55.612 24.4359 42.5863 27.6118C41.17 32.1397 37.007 35.6375 32.2216 35.659C29.6894 35.7662 27.05 35.4444 25.0328 33.7276C24.3461 36.2813 23.917 38.9422 23.7667 41.7319C23.7667 41.7319 22.0071 44.7361 21.4062 49.7361C24.8612 50.8949 28.7023 48.9421 31.6851 47.2039Z" fill="#562911"/>
<path opacity="0.89" d="M55.5899 90.6794C53.9804 89.4347 52.1779 90.2073 50.4612 89.9497C50.547 88.9412 51.6629 88.0184 51.1264 87.1601C50.2037 86.0657 48.2723 84.9069 47.7144 86.688C47.2423 87.4605 48.2294 88.8553 49.3882 89.5635C46.8131 89.8639 43.723 87.997 44.002 84.9712C44.0234 84.7996 44.0449 84.6064 44.1093 84.4348C48.2509 83.0185 53.7444 86.5378 55.5899 90.6794Z" fill="#CF8755"/>
<path d="M177.521 147.912C177.521 150.272 169.045 152.182 158.616 152.182C148.165 152.182 139.689 150.272 139.689 147.912C139.389 144.371 148.165 143.641 158.616 143.641C169.045 143.641 177.457 144.264 177.521 147.912Z" fill="#343A41"/>
<path d="M177.436 147.224C177.436 149.585 169.003 151.494 158.595 151.494C148.187 151.494 139.754 149.585 139.754 147.224C139.754 144.864 148.187 142.954 158.595 142.954C169.003 142.975 177.436 144.885 177.436 147.224Z" fill="#565C66"/>
<path d="M172.972 146.473C172.972 148.146 166.534 149.498 158.594 149.498C150.655 149.498 144.217 148.146 144.217 146.473C144.217 144.799 150.655 143.447 158.594 143.447C166.534 143.447 172.972 144.799 172.972 146.473Z" fill="#616774"/>
<path d="M200.009 130.337C200.009 131.131 199.409 131.796 198.657 131.796H119.946C119.195 131.796 118.594 131.153 118.594 130.337V77.7626C118.594 76.9686 119.195 76.3033 119.946 76.3033H198.657C199.409 76.3033 200.009 76.9471 200.009 77.7626V130.337Z" fill="#534D53"/>
<path d="M196.446 128.299C196.446 129.029 195.888 129.608 195.223 129.608H123.657C122.97 129.608 122.434 129.029 122.434 128.299V80.7891C122.434 80.0595 122.992 79.4801 123.657 79.4801H195.223C195.909 79.4801 196.446 80.0595 196.446 80.7891V128.299Z" fill="#66707C"/>
<path d="M194.666 127.741C194.666 128.149 194.344 128.492 193.958 128.492C193.572 128.492 193.25 128.149 193.25 127.741C193.25 127.333 193.572 126.99 193.958 126.99C194.344 126.99 194.666 127.333 194.666 127.741Z" fill="#3D424B"/>
<path d="M125.096 128.105C125.096 128.513 124.774 128.856 124.388 128.856C124.002 128.856 123.68 128.513 123.68 128.105C123.68 127.697 124.002 127.354 124.388 127.354C124.796 127.354 125.096 127.697 125.096 128.105Z" fill="#3D424B"/>
<path d="M141.599 128.556C141.599 128.77 141.449 128.942 141.234 128.942C141.041 128.942 140.869 128.77 140.869 128.556V122.611C140.869 122.397 141.041 122.225 141.234 122.225C141.427 122.225 141.599 122.397 141.599 122.611V128.556Z" fill="#3D424B"/>
<path d="M142.735 128.556C142.735 128.77 142.564 128.942 142.371 128.942C142.178 128.942 142.006 128.77 142.006 128.556V122.611C142.006 122.397 142.156 122.225 142.371 122.225C142.564 122.225 142.735 122.397 142.735 122.611V128.556Z" fill="#3D424B"/>
<path d="M143.874 128.556C143.874 128.77 143.702 128.942 143.509 128.942C143.316 128.942 143.145 128.77 143.145 128.556V122.611C143.145 122.397 143.295 122.225 143.509 122.225C143.702 122.225 143.874 122.397 143.874 122.611V128.556Z" fill="#3D424B"/>
<path d="M145.011 128.556C145.011 128.77 144.861 128.942 144.646 128.942C144.453 128.942 144.281 128.77 144.281 128.556V122.611C144.281 122.397 144.431 122.225 144.646 122.225C144.839 122.225 145.011 122.397 145.011 122.611V128.556Z" fill="#3D424B"/>
<path d="M146.148 128.556C146.148 128.77 145.976 128.942 145.783 128.942C145.59 128.942 145.418 128.77 145.418 128.556V122.611C145.418 122.397 145.59 122.225 145.783 122.225C145.976 122.225 146.148 122.397 146.148 122.611V128.556Z" fill="#3D424B"/>
<path d="M147.308 128.556C147.308 128.77 147.158 128.942 146.943 128.942C146.75 128.942 146.578 128.77 146.578 128.556V122.611C146.578 122.397 146.75 122.225 146.943 122.225C147.136 122.225 147.308 122.397 147.308 122.611V128.556Z" fill="#3D424B"/>
<path d="M172.134 128.556C172.134 128.77 171.984 128.942 171.769 128.942C171.576 128.942 171.404 128.77 171.404 128.556V122.611C171.404 122.397 171.555 122.225 171.769 122.225C171.962 122.225 172.134 122.397 172.134 122.611V128.556Z" fill="#3D424B"/>
<path d="M173.271 128.556C173.271 128.77 173.12 128.942 172.906 128.942C172.713 128.942 172.541 128.77 172.541 128.556V122.611C172.541 122.397 172.713 122.225 172.906 122.225C173.099 122.225 173.271 122.397 173.271 122.611V128.556Z" fill="#3D424B"/>
<path d="M174.409 128.556C174.409 128.77 174.259 128.942 174.044 128.942C173.851 128.942 173.68 128.77 173.68 128.556V122.611C173.68 122.397 173.83 122.225 174.044 122.225C174.238 122.225 174.409 122.397 174.409 122.611V128.556Z" fill="#3D424B"/>
<path d="M175.546 128.556C175.546 128.77 175.396 128.942 175.181 128.942C174.988 128.942 174.816 128.77 174.816 128.556V122.611C174.816 122.397 174.988 122.225 175.181 122.225C175.374 122.225 175.546 122.397 175.546 122.611V128.556Z" fill="#3D424B"/>
<path d="M176.683 128.556C176.683 128.77 176.533 128.942 176.318 128.942C176.125 128.942 175.953 128.77 175.953 128.556V122.611C175.953 122.397 176.125 122.225 176.318 122.225C176.511 122.225 176.683 122.397 176.683 122.611V128.556Z" fill="#3D424B"/>
<path d="M177.821 128.556C177.821 128.77 177.671 128.942 177.457 128.942C177.263 128.942 177.092 128.77 177.092 128.556V122.611C177.092 122.397 177.242 122.225 177.457 122.225C177.65 122.225 177.821 122.397 177.821 122.611V128.556Z" fill="#3D424B"/>
<path d="M139.602 123.233C139.602 123.641 139.28 123.984 138.894 123.984C138.507 123.984 138.186 123.641 138.186 123.233C138.186 122.825 138.507 122.482 138.894 122.482C139.301 122.482 139.602 122.825 139.602 123.233Z" fill="#3D424B"/>
<path d="M180.395 123.233C180.395 123.641 180.073 123.984 179.687 123.984C179.3 123.984 178.979 123.641 178.979 123.233C178.979 122.825 179.3 122.482 179.687 122.482C180.073 122.482 180.395 122.825 180.395 123.233Z" fill="#3D424B"/>
<path d="M167.455 145.1C167.455 145.959 166.962 146.645 166.34 146.645H150.696C150.074 146.645 149.58 145.959 149.58 145.1V109.543C149.58 108.684 150.074 107.998 150.696 107.998H166.318C166.94 107.998 167.434 108.684 167.434 109.543V145.1H167.455Z" fill="#66707C"/>
<path d="M150.568 108.662C150.224 108.662 149.945 109.327 149.945 110.164V144.563C149.945 145.4 150.224 146.065 150.568 146.065H150.782L152.091 108.662H150.568Z" fill="#4A5059"/>
<path d="M166.297 108.662C166.64 108.662 166.919 109.327 166.919 110.164V144.563C166.919 145.4 166.64 146.065 166.297 146.065H166.082L164.773 108.662H166.297Z" fill="#4A5059"/>
</svg>
